<svg xmlns="http://www.w3.org/2000/svg" viewBox="0 0 420 420" width="420" height="420" preserveAspectRatio="xMidYMid meet" style="width: 100%; height: 100%; transform: translate3d(0px, 0px, 0px);"><defs><clipPath id="__lottie_element_2"><rect width="420" height="420" x="0" y="0"></rect></clipPath><clipPath id="__lottie_element_4"><path d="M0,0 L500,0 L500,500 L0,500z"></path></clipPath><clipPath id="__lottie_element_5"><path fill="#ffffff" clip-rule="nonzero" d=" M253.92599487304688,5.081999778747559 C141.25999450683594,5.081999778747559 49.92599868774414,96.41600036621094 49.92599868774414,209.08200073242188 C49.92599868774414,321.74798583984375 141.25999450683594,413.0820007324219 253.92599487304688,413.0820007324219 C366.5920104980469,413.0820007324219 457.9259948730469,321.74798583984375 457.9259948730469,209.08200073242188 C457.9259948730469,96.41600036621094 366.5920104980469,5.081999778747559 253.92599487304688,5.081999778747559" fill-opacity="1"></path></clipPath></defs><g clip-path="url(#__lottie_element_2)"><g clip-path="url(#__lottie_element_4)" transform="matrix(1,0,0,1,-43,0.75)" opacity="1" style="display: block;"><g clip-path="url(#__lottie_element_5)"><g transform="matrix(1,0,0,1,249,250.5)" opacity="1" style="display: block;"><g opacity="1" transform="matrix(1,0,0,1,0,0)"><path fill="rgb(255,0,0)" fill-opacity="0" d="M0 0"></path><path stroke-linecap="butt" stroke-linejoin="miter" fill-opacity="0" stroke-miterlimit="4" stroke="rgb(185,75,62)" stroke-opacity="1" stroke-width="2" d=" M-86.66400146484375,71.00499725341797 C-86.80999755859375,61.67399978637695 -87,49.5 -87,49.5 C-87,49.5 -68,41.5 -68,41.5 C-68,41.5 -67,8.5 -67,8.5 C-67,8.5 -49.5,0 -49.5,0 C-49.5,0 -32,9 -32,9 C-32,9 -13.5,0 -13.5,0 C-13.5,0 -13.5,-32.5 -13.5,-32.5 C-13.5,-32.5 -13.5,-32.5 -8.972000122070312,-34.63800048828125"></path></g></g><g transform="matrix(1,0,0,1,249,250.5)" opacity="1" style="display: block;"><g opacity="1" transform="matrix(1,0,0,1,0,0)"><path fill="rgb(255,0,0)" fill-opacity="0" d="M0 0"></path><path stroke-linecap="butt" stroke-linejoin="miter" fill-opacity="0" stroke-miterlimit="4" stroke="rgb(185,75,62)" stroke-opacity="1" stroke-width="2" d=" M-86.09700012207031,-87.19200134277344 C-86.24199676513672,-96.49500274658203 -86.5,-113 -86.5,-113 C-86.5,-113 -68.5,-123 -68.5,-123 C-68.5,-123 -50,-113.5 -50,-113.5 C-50,-113.5 -50,-81 -50,-81 C-50,-81 -32,-74 -32,-74 C-32,-74 -32,-41 -32,-41 C-32,-41 -29.770000457763672,-39.91699981689453 -26.77199935913086,-38.459999084472656"></path></g></g><g transform="matrix(1,0,0,1,249,250.5)" opacity="1" style="display: block;"><g opacity="1" transform="matrix(1,0,0,1,0,0)"><path fill="rgb(255,0,0)" fill-opacity="0" d="M0 0"></path><path stroke-linecap="butt" stroke-linejoin="miter" fill-opacity="0" stroke-miterlimit="4" stroke="rgb(185,75,62)" stroke-opacity="1" stroke-width="2" d=" M-86.75,-2.128999948501587 C-86.75,-8.913000106811523 -86.75,-31.75 -86.75,-31.75 C-86.75,-31.75 -105.5,-41 -105.5,-41 C-105.5,-41 -105.5,-55.104000091552734 -105.5,-65.9739990234375"></path></g></g><g transform="matrix(1,0,0,1,249,250.5)" opacity="1" style="display: block;"><g opacity="1" transform="matrix(1,0,0,1,0,0)"><path fill="rgb(255,0,0)" fill-opacity="0" d="M0 0"></path><path stroke-linecap="butt" stroke-linejoin="miter" fill-opacity="0" stroke-miterlimit="4" stroke="rgb(185,75,62)" stroke-opacity="1" stroke-width="2" d=" M-49.78900146484375,-170.67999267578125 C-49.62300109863281,-165.6840057373047 -49.5,-162 -49.5,-162 C-49.5,-162 -31.5,-154 -31.5,-154 C-31.5,-154 -32,-122 -32,-122 C-32,-122 -38.084999084472656,-119.05000305175781 -42.86399841308594,-116.73300170898438"></path></g></g><g transform="matrix(1,0,0,1,249,251)" opacity="1" style="display: block;"><g opacity="1" transform="matrix(1,0,0,1,0,0)"><path fill="rgb(255,0,0)" fill-opacity="0" d="M0 0"></path><path stroke-linecap="butt" stroke-linejoin="miter" fill-opacity="0" stroke-miterlimit="4" stroke="rgb(185,75,62)" stroke-opacity="1" stroke-width="2" d=" M-68.37300109863281,-72.80400085449219 C-68.29199981689453,-72.76899719238281 -68.25,-72.75 -68.25,-72.75 C-68.25,-72.75 -68,-40.5 -68,-40.5 C-68,-40.5 -50,-32 -50,-32 C-50,-32 -43.1349983215332,-35.242000579833984 -37.194000244140625,-38.047000885009766"></path></g></g><g transform="matrix(1,0,0,1,249,250.5)" opacity="1" style="display: block;"><g opacity="1" transform="matrix(1,0,0,1,0,0)"><path fill="rgb(255,0,0)" fill-opacity="0" d="M0 0"></path><path stroke-linecap="butt" stroke-linejoin="miter" fill-opacity="0" stroke-miterlimit="4" stroke="rgb(185,75,62)" stroke-opacity="1" stroke-width="2" d=" M-64.24600219726562,125.53700256347656 C-66.1760025024414,124.625 -67.5,124 -67.5,124 C-67.5,124 -67.5,91 -67.5,91 C-67.5,91 -50,82 -50,82 C-50,82 -31.5,91.5 -31.5,91.5 C-31.5,91.5 -13,82 -13,82 C-13,82 -14,50.5 -14,50.5 C-14,50.5 -32.5,41.5 -32.5,41.5 C-32.5,41.5 -32.367000579833984,32.95399856567383 -32.22600173950195,23.97599983215332"></path></g></g><g transform="matrix(1,0,0,1,249,250.5)" opacity="1" style="display: block;"><g opacity="1" transform="matrix(1,0,0,1,0,0)"><path fill="rgb(255,0,0)" fill-opacity="0" d="M0 0"></path><path stroke-linecap="butt" stroke-linejoin="miter" fill-opacity="0" stroke-miterlimit="4" stroke="rgb(185,75,62)" stroke-opacity="1" stroke-width="2" d=" M-137.5749969482422,7.0370001792907715 C-132.01100158691406,4.255000114440918 -122.5,-0.5 -122.5,-0.5 C-122.5,-0.5 -105,9 -105,9 C-105,9 -105,41 -105,41 C-105,41 -98.9729995727539,44.013999938964844 -93.32599639892578,46.83700180053711"></path></g></g><g transform="matrix(1,0,0,1,249,250.5)" opacity="1" style="display: block;"><g opacity="1" transform="matrix(1,0,0,1,0,0)"><path fill="rgb(255,0,0)" fill-opacity="0" d="M0 0"></path><path stroke-linecap="butt" stroke-linejoin="miter" fill-opacity="0" stroke-miterlimit="4" stroke="rgb(185,75,62)" stroke-opacity="1" stroke-width="2" d=" M-158.79400634765625,-109.95800018310547 C-158.9149932861328,-102.16600036621094 -159.25,-80.75 -159.25,-80.75 C-159.25,-80.75 -178.25,-72.5 -178.25,-72.5 C-178.25,-72.5 -176.5,-39 -176.5,-39 C-176.5,-39 -158.5,-31.5 -158.5,-31.5 C-158.5,-31.5 -140.5,-39.5 -140.5,-39.5 C-140.5,-39.5 -123,-31.5 -123,-31.5 C-123,-31.5 -120.40399932861328,-32.76100158691406 -117.04900360107422,-34.39099884033203"></path></g></g><g transform="matrix(1,0,0,1,249,250.5)" opacity="1" style="display: block;"><g opacity="1" transform="matrix(1,0,0,1,0,0)"><path fill="rgb(255,0,0)" fill-opacity="0" d="M0 0"></path><path stroke-linecap="butt" stroke-linejoin="miter" fill-opacity="0" stroke-miterlimit="4" stroke="rgb(185,75,62)" stroke-opacity="1" stroke-width="2" d=" M-82.94999694824219,-33.13399887084961 C-78.51799774169922,-35.46799850463867 -72.91300201416016,-38.41999816894531 -69.19000244140625,-40.375"></path></g></g><g transform="matrix(1,0,0,1,249,250.5)" opacity="1" style="display: block;"><g opacity="1" transform="matrix(1,0,0,1,0,0)"><path fill="rgb(255,0,0)" fill-opacity="0" d="M0 0"></path><path stroke-linecap="butt" stroke-linejoin="miter" fill-opacity="0" stroke-miterlimit="4" stroke="rgb(185,75,62)" stroke-opacity="1" stroke-width="2" d=" M-132.48800659179688,-198.77099609375 C-127.83100128173828,-196.1840057373047 -123,-193.5 -123,-193.5 C-123,-193.5 -104,-203 -104,-203 C-104,-203 -86.5,-195 -86.5,-195 C-86.5,-195 -86.5,-162 -86.5,-162 C-86.5,-162 -104.5,-152.5 -104.5,-152.5 C-104.5,-152.5 -104.5,-121 -104.5,-121 C-104.5,-121 -101.54499816894531,-119.68699645996094 -97.83399963378906,-118.03700256347656"></path></g></g><g transform="matrix(1,0,0,1,249,250.5)" opacity="1" style="display: block;"><g opacity="1" transform="matrix(1,0,0,1,0,0)"><path fill="rgb(255,0,0)" fill-opacity="0" d="M0 0"></path><path stroke-linecap="butt" stroke-linejoin="miter" fill-opacity="0" stroke-miterlimit="4" stroke="rgb(185,75,62)" stroke-opacity="1" stroke-width="2" d=" M-13.5,153.83799743652344 C-13.5,143.77499389648438 -13.5,133 -13.5,133 C-13.5,133 -4.695000171661377,128.35299682617188 1.6019999980926514,125.02999877929688"></path></g></g><g transform="matrix(1,0,0,1,249,250.5)" opacity="1" style="display: block;"><g opacity="1" transform="matrix(1,0,0,1,0,0)"><path fill="rgb(255,0,0)" fill-opacity="0" d="M0 0"></path><path stroke-linecap="butt" stroke-linejoin="miter" fill-opacity="0" stroke-miterlimit="4" stroke="rgb(185,75,62)" stroke-opacity="1" stroke-width="2" d=" M-110.38400268554688,125.875 C-107.31900024414062,124.52300262451172 -105,123.5 -105,123.5 C-105,123.5 -86,132 -86,132 C-86,132 -77.3550033569336,128.26199340820312 -70.9219970703125,125.4800033569336"></path></g></g><g transform="matrix(1,0,0,1,249,250.5)" opacity="1" style="display: block;"><g opacity="1" transform="matrix(1,0,0,1,0,0)"><path fill="rgb(255,0,0)" fill-opacity="0" d="M0 0"></path><path stroke-linecap="butt" stroke-linejoin="miter" fill-opacity="0" stroke-miterlimit="4" stroke="rgb(185,75,62)" stroke-opacity="1" stroke-width="2" d=" M-71.44599914550781,88.94100189208984 C-75.76200103759766,86.95999908447266 -81.21900177001953,84.44999694824219 -84.84200286865234,82.78299713134766"></path></g></g><g transform="matrix(1,0,0,1,249,250.5)" opacity="1" style="display: block;"><g opacity="1" transform="matrix(1,0,0,1,0,0)"><path fill="rgb(255,0,0)" fill-opacity="0" d="M0 0"></path><path stroke-linecap="butt" stroke-linejoin="miter" fill-opacity="0" stroke-miterlimit="4" stroke="rgb(185,75,62)" stroke-opacity="1" stroke-width="2" d=" M-50,70.5999984741211 C-50,60.875999450683594 -50,50.5 -50,50.5 C-50,50.5 -58.8390007019043,46.08100128173828 -65.13800048828125,42.930999755859375"></path></g></g><g transform="matrix(1,0,0,1,249,250.5)" opacity="1" style="display: block;"><g opacity="1" transform="matrix(1,0,0,1,0,0)"><path fill="rgb(255,0,0)" fill-opacity="1" d="M0 0"></path><path stroke-linecap="butt" stroke-linejoin="miter" fill-opacity="0" stroke-miterlimit="4" stroke="rgb(185,75,62)" stroke-opacity="1" stroke-width="2" d=" M-50,-6.322000026702881 C-50,-13.866000175476074 -50,-23.267000198364258 -50,-29.496999740600586"></path></g></g><g transform="matrix(1,0,0,1,249,250.5)" opacity="1" style="display: block;"><g opacity="1" transform="matrix(1,0,0,1,0,0)"><path fill="rgb(255,0,0)" fill-opacity="0" d="M0 0"></path><path stroke-linecap="butt" stroke-linejoin="miter" fill-opacity="0" stroke-miterlimit="4" stroke="rgb(185,75,62)" stroke-opacity="1" stroke-width="2" d=" M95.5,-6.142000198364258 C95.5,-14.038999557495117 95.5,-23.881000518798828 95.5,-30.402999877929688"></path></g></g><g transform="matrix(1,0,0,1,249,250.5)" opacity="1" style="display: block;"><g opacity="1" transform="matrix(1,0,0,1,0,0)"><path fill="rgb(255,0,0)" fill-opacity="0" d="M0 0"></path><path stroke-linecap="butt" stroke-linejoin="miter" fill-opacity="0" stroke-miterlimit="4" stroke="rgb(185,75,62)" stroke-opacity="1" stroke-width="2" d=" M-27.555999755859375,-119.9010009765625 C-23.19499969482422,-118.13300323486328 -17.760000228881836,-115.93000030517578 -14.157999992370605,-114.46900177001953"></path></g></g><g transform="matrix(1,0,0,1,249,250.5)" opacity="1" style="display: block;"><g opacity="1" transform="matrix(1,0,0,1,0,0)"><path fill="rgb(255,0,0)" fill-opacity="0" d="M0 0"></path><path stroke-linecap="butt" stroke-linejoin="miter" fill-opacity="0" stroke-miterlimit="4" stroke="rgb(185,75,62)" stroke-opacity="1" stroke-width="2" d=" M-166.947998046875,-158.92100524902344 C-163.3000030517578,-160.8000030517578 -160,-162.5 -160,-162.5 C-160,-162.5 -142,-155.5 -142,-155.5 C-142,-155.5 -141,-121.5 -141,-121.5 C-141,-121.5 -123,-114.5 -123,-114.5 C-123,-114.5 -121.5,-80.5 -121.5,-80.5 C-121.5,-80.5 -141.5,-72.5 -141.5,-72.5 C-141.5,-72.5 -141.5,-66.48600006103516 -141.5,-59.13999938964844"></path></g></g><g transform="matrix(1,0,0,1,249,250.5)" opacity="1" style="display: block;"><g opacity="1" transform="matrix(1,0,0,1,0,0)"><path fill="rgb(255,0,0)" fill-opacity="0" d="M0 0"></path><path stroke-linecap="butt" stroke-linejoin="miter" fill-opacity="0" stroke-miterlimit="4" stroke="rgb(185,75,62)" stroke-opacity="1" stroke-width="2" d=" M4.366000175476074,-227.94200134277344 C4.809999942779541,-218.76499938964844 5.5,-204.5 5.5,-204.5 C5.5,-204.5 -13.5,-196 -13.5,-196 C-13.5,-196 -12.5,-162 -12.5,-162 C-12.5,-162 -7.783999919891357,-159.8560028076172 -2.9839999675750732,-157.6750030517578"></path></g></g><g transform="matrix(1,0,0,1,249,250.5)" opacity="1" style="display: block;"><g opacity="1" transform="matrix(1,0,0,1,0,0)"><path fill="rgb(255,0,0)" fill-opacity="0" d="M0 0"></path><path stroke-linecap="butt" stroke-linejoin="miter" fill-opacity="0" stroke-miterlimit="4" stroke="rgb(185,75,62)" stroke-opacity="1" stroke-width="2" d=" M-32.21099853515625,117.53800201416016 C-32.44300079345703,109.37300109863281 -32.7400016784668,99.0469970703125 -32.9370002746582,92.19100189208984"></path></g></g><g transform="matrix(1,0,0,1,249,250.5)" opacity="1" style="display: block;"><g opacity="1" transform="matrix(1,0,0,1,0,0)"><path fill="rgb(255,0,0)" fill-opacity="0" d="M0 0"></path><path stroke-linecap="butt" stroke-linejoin="miter" fill-opacity="0" stroke-miterlimit="4" stroke="rgb(185,75,62)" stroke-opacity="1" stroke-width="2" d=" M-68.5,-146.89100646972656 C-68.5,-139.58299255371094 -68.5,-130.4759979248047 -68.5,-124.44000244140625"></path></g></g><g transform="matrix(1,0,0,1,249,250.5)" opacity="1" style="display: block;"><g opacity="1" transform="matrix(1,0,0,1,0,0)"><path fill="rgb(255,0,0)" fill-opacity="0" d="M0 0"></path><path stroke-linecap="butt" stroke-linejoin="miter" fill-opacity="0" stroke-miterlimit="4" stroke="rgb(185,75,62)" stroke-opacity="1" stroke-width="2" d=" M-118.16500091552734,-160.80999755859375 C-113.97000122070312,-158.41900634765625 -108.65599822998047,-155.39700317382812 -105.12699890136719,-153.39100646972656"></path></g></g><g transform="matrix(1,0,0,1,249,250.5)" opacity="1" style="display: block;"><g opacity="1" transform="matrix(1,0,0,1,0,0)"><path fill="rgb(255,0,0)" fill-opacity="0" d="M0 0"></path><path stroke-linecap="butt" stroke-linejoin="miter" fill-opacity="0" stroke-miterlimit="4" stroke="rgb(185,75,62)" stroke-opacity="1" stroke-width="2" d=" M-127.26499938964844,84.65899658203125 C-124.75800323486328,83.68399810791016 -123,83 -123,83 C-123,83 -123,49 -123,49 C-123,49 -117.10600280761719,47.03499984741211 -112.1050033569336,45.36800003051758"></path></g></g><g transform="matrix(1,0,0,1,249,250.5)" opacity="1" style="display: block;"><g opacity="1" transform="matrix(1,0,0,1,0,0)"><path fill="rgb(255,0,0)" fill-opacity="0" d="M0 0"></path><path stroke-linecap="butt" stroke-linejoin="miter" fill-opacity="0" stroke-miterlimit="4" stroke="rgb(185,75,62)" stroke-opacity="1" stroke-width="2" d=" M-162.4459991455078,1.8240000009536743 C-160.39300537109375,0.7369999885559082 -159,0 -159,0 C-159,0 -141,8 -141,8 C-141,8 -141,27.466999053955078 -141,36.49800109863281"></path></g></g><g transform="matrix(1,0,0,1,249,250.5)" opacity="1" style="display: block;"><g opacity="1" transform="matrix(1,0,0,1,0,0)"><path fill="rgb(255,0,0)" fill-opacity="0" d="M0 0"></path><path stroke-linecap="butt" stroke-linejoin="miter" fill-opacity="0" stroke-miterlimit="4" stroke="rgb(185,75,62)" stroke-opacity="1" stroke-width="2" d=" M-67.5,-217.33599853515625 C-67.5,-209.60000610351562 -67.5,-203 -67.5,-203 C-67.5,-203 -49.5,-195 -49.5,-195 C-49.5,-195 -49.5,-178.87600708007812 -49.5,-167.33299255371094"></path></g></g><g transform="matrix(1,0,0,1,249,250.5)" opacity="1" style="display: block;"><g opacity="1" transform="matrix(1,0,0,1,0,0)"><path stroke-linecap="butt" stroke-linejoin="miter" fill-opacity="0" stroke-miterlimit="4" stroke="rgb(185,75,62)" stroke-opacity="1" stroke-width="2" d="M0 0"></path></g><g opacity="1" transform="matrix(1,0,0,1,0,0)"><path fill="rgb(255,0,0)" fill-opacity="0" d="M0 0"></path><path stroke-linecap="butt" stroke-linejoin="miter" fill-opacity="0" stroke-miterlimit="4" stroke="rgb(185,75,62)" stroke-opacity="1" stroke-width="2" d=" M-169.98500061035156,-200.09500122070312 C-164.2310028076172,-197.29200744628906 -158.5,-194.5 -158.5,-194.5 C-158.5,-194.5 -149.16099548339844,-199.16900634765625 -142.84100341796875,-202.32899475097656"></path></g></g><g transform="matrix(1,0,0,1,250,250)" opacity="1" style="display: block;"><g opacity="1" transform="matrix(1,0,0,1,0,0)"><path fill="rgb(255,0,0)" fill-opacity="0" d="M0 0"></path><path stroke-linecap="butt" stroke-linejoin="miter" fill-opacity="0" stroke-miterlimit="4" stroke="rgb(185,75,62)" stroke-opacity="1" stroke-width="2" d=" M60,55.03200149536133 C60,51.74100112915039 60,49.5 60,49.5 C60,49.5 78.25,40.25 78.25,40.25 C78.25,40.25 77.5,9.25 77.5,9.25 C77.5,9.25 59.5,0 59.5,0 C59.5,0 41,8.75 41,8.75 C41,8.75 22.5,0.5 22.5,0.5 C22.5,0.5 22.5,-32.25 22.5,-32.25 C22.5,-32.25 20.031999588012695,-33.415000915527344 16.774999618530273,-34.95399856567383"></path></g></g><g transform="matrix(1,0,0,1,250,250)" opacity="1" style="display: block;"><g opacity="1" transform="matrix(1,0,0,1,0,0)"><path fill="rgb(255,0,0)" fill-opacity="0" d="M0 0"></path><path stroke-linecap="butt" stroke-linejoin="miter" fill-opacity="0" stroke-miterlimit="4" stroke="rgb(185,75,62)" stroke-opacity="1" stroke-width="2" d=" M44.34700012207031,-155.3489990234375 C42.63399887084961,-154.53700256347656 41.5,-154 41.5,-154 C41.5,-154 41,-122.5 41,-122.5 C41,-122.5 23,-114 23,-114 C23,-114 23,-81.5 23,-81.5 C23,-81.5 4.5,-73 4.5,-73 C4.5,-73 4.5,-62.17599868774414 4.5,-52.09299850463867"></path></g></g><g transform="matrix(1,0,0,1,250,250)" opacity="1" style="display: block;"><g opacity="1" transform="matrix(1,0,0,1,0,0)"><path fill="rgb(255,0,0)" fill-opacity="0" d="M0 0"></path><path stroke-linecap="butt" stroke-linejoin="miter" fill-opacity="0" stroke-miterlimit="4" stroke="rgb(185,75,62)" stroke-opacity="1" stroke-width="2" d=" M78.87300109863281,-39.83100128173828 C78.63200378417969,-39.939998626708984 78.5,-40 78.5,-40 C78.5,-40 78.5,-71.5 78.5,-71.5 C78.5,-71.5 59,-81 59,-81 C59,-81 40.5,-72 40.5,-72 C40.5,-72 40.5,-40.5 40.5,-40.5 C40.5,-40.5 22,-32.5 22,-32.5 C22,-32.5 18.89900016784668,-33.82899856567383 15.093999862670898,-35.459999084472656"></path></g></g><g transform="matrix(1,0,0,1,250,250)" opacity="1" style="display: block;"><g opacity="1" transform="matrix(1,0,0,1,0,0)"><path fill="rgb(255,0,0)" fill-opacity="0" d="M0 0"></path><path stroke-linecap="butt" stroke-linejoin="miter" fill-opacity="0" stroke-miterlimit="4" stroke="rgb(185,75,62)" stroke-opacity="1" stroke-width="2" d=" M22.98699951171875,-162.92100524902344 C22.9950008392334,-162.3260040283203 23,-162 23,-162 C23,-162 4,-154 4,-154 C4,-154 5,-122 5,-122 C5,-122 -14,-113.5 -14,-113.5 C-14,-113.5 -13.5,-82 -13.5,-82 C-13.5,-82 -17.746999740600586,-79.99400329589844 -22.451000213623047,-77.77300262451172"></path></g><g opacity="1" transform="matrix(1,0,0,1,0,0)"><path fill="rgb(255,0,0)" fill-opacity="0" d="M0 0"></path><path stroke-linecap="butt" stroke-linejoin="miter" fill-opacity="0" stroke-miterlimit="4" stroke="rgb(185,75,62)" stroke-opacity="1" stroke-width="2" d="M0 0"></path></g></g><g transform="matrix(1,0,0,1,250,250)" opacity="1" style="display: block;"><g opacity="1" transform="matrix(1,0,0,1,0,0)"><path fill="rgb(255,0,0)" fill-opacity="0" d="M0 0"></path><path stroke-linecap="butt" stroke-linejoin="miter" fill-opacity="0" stroke-miterlimit="4" stroke="rgb(185,75,62)" stroke-opacity="1" stroke-width="2" d=" M104.66000366210938,-76.52100372314453 C100.23999786376953,-78.552001953125 96,-80.5 96,-80.5 C96,-80.5 95,-113 95,-113 C95,-113 77.5,-121 77.5,-121 C77.5,-121 59,-113 59,-113 C59,-113 59.19300079345703,-100.63500213623047 59.35900115966797,-90.0250015258789"></path></g></g><g transform="matrix(1,0,0,1,250,250)" opacity="1" style="display: block;"><g opacity="1" transform="matrix(1,0,0,1,0,0)"><path fill="rgb(255,0,0)" fill-opacity="0" d="M0 0"></path><path stroke-linecap="butt" stroke-linejoin="miter" fill-opacity="0" stroke-miterlimit="4" stroke="rgb(185,75,62)" stroke-opacity="1" stroke-width="2" d=" M12.315999984741211,127.01399993896484 C8.21500015258789,124.90799713134766 4.5,123 4.5,123 C4.5,123 6,90 6,90 C6,90 23,82 23,82 C23,82 23,50.5 23,50.5 C23,50.5 5.5,42 5.5,42 C5.5,42 4.5,9 4.5,9 C4.5,9 1.8630000352859497,7.828000068664551 -1.555999994277954,6.308000087738037"></path></g></g><g transform="matrix(1,0,0,1,250,250)" opacity="1" style="display: block;"><g opacity="1" transform="matrix(1,0,0,1,0,0)"><path fill="rgb(255,0,0)" fill-opacity="0" d="M0 0"></path><path stroke-linecap="butt" stroke-linejoin="miter" fill-opacity="0" stroke-miterlimit="4" stroke="rgb(185,75,62)" stroke-opacity="1" stroke-width="2" d=" M55.055999755859375,-33.8120002746582 C50.74399948120117,-35.792999267578125 45.284000396728516,-38.301998138427734 41.65800094604492,-39.96799850463867"></path></g></g><g transform="matrix(1,0,0,1,250,250)" opacity="1" style="display: block;"><g opacity="1" transform="matrix(1,0,0,1,0,0)"><path fill="rgb(255,0,0)" fill-opacity="0" d="M0 0"></path><path stroke-linecap="butt" stroke-linejoin="miter" fill-opacity="0" stroke-miterlimit="4" stroke="rgb(185,75,62)" stroke-opacity="1" stroke-width="2" d=" M144.12600708007812,44.715999603271484 C138.86399841308594,47.560001373291016 132.5,51 132.5,51 C132.5,51 114.5,42 114.5,42 C114.5,42 114.5,9.5 114.5,9.5 C114.5,9.5 96,1.5 96,1.5 C96,1.5 90.45999908447266,3.687000036239624 84.8759994506836,5.890999794006348"></path></g></g><g transform="matrix(1,0,0,1,250,250)" opacity="1" style="display: block;"><g opacity="1" transform="matrix(1,0,0,1,0,0)"><path fill="rgb(255,0,0)" fill-opacity="0" d="M0 0"></path><path stroke-linecap="butt" stroke-linejoin="miter" fill-opacity="0" stroke-miterlimit="4" stroke="rgb(185,75,62)" stroke-opacity="1" stroke-width="2" d=" M36.71699905395508,-74.36699676513672 C32.57699966430664,-76.41000366210938 27.34000015258789,-78.99400329589844 23.86199951171875,-80.7040023803711"></path></g></g><g transform="matrix(1,0,0,1,250,250)" opacity="1" style="display: block;"><g opacity="1" transform="matrix(1,0,0,1,0,0)"><path fill="rgb(255,0,0)" fill-opacity="0" d="M0 0"></path><path stroke-linecap="butt" stroke-linejoin="miter" fill-opacity="0" stroke-miterlimit="4" stroke="rgb(185,75,62)" stroke-opacity="1" stroke-width="2" d=" M49.819000244140625,44.44499969482422 C45.11000061035156,42.3390007019043 41,40.5 41,40.5 C41,40.5 41,23.326000213623047 41,12.274999618530273"></path></g></g><g transform="matrix(1,0,0,1,250,250)" opacity="1" style="display: block;"><g opacity="1" transform="matrix(1,0,0,1,0,0)"><path fill="rgb(255,0,0)" fill-opacity="0" d="M0 0"></path><path stroke-linecap="butt" stroke-linejoin="miter" fill-opacity="0" stroke-miterlimit="4" stroke="rgb(185,75,62)" stroke-opacity="1" stroke-width="2" d=" M132.86099243164062,-171.23199462890625 C132.94000244140625,-166.28599548339844 133,-162.5 133,-162.5 C133,-162.5 114,-153 114,-153 C114,-153 115,-120.5 115,-120.5 C115,-120.5 107.7040023803711,-117.58200073242188 101.20800018310547,-114.98300170898438"></path></g></g><g transform="matrix(1,0,0,1,250,250)" opacity="1" style="display: block;"><g opacity="1" transform="matrix(1,0,0,1,0,0)"><path fill="rgb(255,0,0)" fill-opacity="0" d="M0 0"></path><path stroke-linecap="butt" stroke-linejoin="miter" fill-opacity="0" stroke-miterlimit="4" stroke="rgb(185,75,62)" stroke-opacity="1" stroke-width="2" d=" M161.6510009765625,-158.968994140625 C156.27499389648438,-156.20899963378906 151,-153.5 151,-153.5 C151,-153.5 141.58599853515625,-158.72999572753906 135.26499938964844,-162.24200439453125"></path></g></g><g transform="matrix(1,0,0,1,250,250)" opacity="1" style="display: block;"><g opacity="1" transform="matrix(1,0,0,1,0,0)"><path fill="rgb(255,0,0)" fill-opacity="0" d="M0 0"></path><path stroke-linecap="butt" stroke-linejoin="miter" fill-opacity="0" stroke-miterlimit="4" stroke="rgb(185,75,62)" stroke-opacity="1" stroke-width="2" d=" M159.12899780273438,5.960999965667725 C155.0260009765625,8.133000373840332 151.5,10 151.5,10 C151.5,10 151.5,26.687999725341797 151.5,37.387001037597656"></path></g></g><g transform="matrix(1,0,0,1,250,250)" opacity="1" style="display: block;"><g opacity="1" transform="matrix(1,0,0,1,0,0)"><path fill="rgb(255,0,0)" fill-opacity="0" d="M0 0"></path><path stroke-linecap="butt" stroke-linejoin="miter" fill-opacity="0" stroke-miterlimit="4" stroke="rgb(185,75,62)" stroke-opacity="1" stroke-width="2" d=" M137.06199645996094,-33.07400131225586 C135.23399353027344,-31.836000442504883 134,-31 134,-31 C134,-31 115,-40.5 115,-40.5 C115,-40.5 115,-55.893001556396484 115,-66.58899688720703"></path></g></g><g transform="matrix(1,0,0,1,250,250)" opacity="1" style="display: block;"><g opacity="1" transform="matrix(1,0,0,1,0,0)"><path fill="rgb(255,0,0)" fill-opacity="0" d="M0 0"></path><path stroke-linecap="butt" stroke-linejoin="miter" fill-opacity="0" stroke-miterlimit="4" stroke="rgb(185,75,62)" stroke-opacity="1" stroke-width="2" d=" M78.21099853515625,-216.18099975585938 C78.09600067138672,-209.281005859375 78,-203.5 78,-203.5 C78,-203.5 60.5,-195.5 60.5,-195.5 C60.5,-195.5 60.5,-179.78399658203125 60.5,-168.58599853515625"></path></g></g><g transform="matrix(1,0,0,1,250,250)" opacity="1" style="display: block;"><g opacity="1" transform="matrix(1,0,0,1,0,0)"><path fill="rgb(255,0,0)" fill-opacity="0" d="M0 0"></path><path stroke-linecap="butt" stroke-linejoin="miter" fill-opacity="0" stroke-miterlimit="4" stroke="rgb(185,75,62)" stroke-opacity="1" stroke-width="2" d=" M171.16799926757812,-79.37699890136719 C169.53799438476562,-80.06300354003906 168.5,-80.5 168.5,-80.5 C168.5,-80.5 151,-72 151,-72 C151,-72 132.5,-81.5 132.5,-81.5 C132.5,-81.5 131.5,-113 131.5,-113 C131.5,-113 128.89599609375,-114.05799865722656 125.61799621582031,-115.38899993896484"></path></g></g><g transform="matrix(1,0,0,1,250,250)" opacity="1" style="display: block;"><g opacity="1" transform="matrix(1,0,0,1,0,0)"><path fill="rgb(255,0,0)" fill-opacity="0" d="M0 0"></path><path stroke-linecap="butt" stroke-linejoin="miter" fill-opacity="0" stroke-miterlimit="4" stroke="rgb(185,75,62)" stroke-opacity="1" stroke-width="2" d=" M141.10499572753906,4.25 C137.01300048828125,1.9630000591278076 133.5,0 133.5,0 C133.5,0 133.2270050048828,-16.966999053955078 133.05099487304688,-27.84000015258789"></path></g></g><g transform="matrix(1,0,0,1,250,250)" opacity="1" style="display: block;"><g opacity="1" transform="matrix(1,0,0,1,0,0)"><path fill="rgb(255,0,0)" fill-opacity="0" d="M0 0"></path><path stroke-linecap="butt" stroke-linejoin="miter" fill-opacity="0" stroke-miterlimit="4" stroke="rgb(185,75,62)" stroke-opacity="1" stroke-width="2" d=" M41.323001861572266,112.69499969482422 C41.16699981689453,102.6729965209961 41,92 41,92 C41,92 31.895999908447266,87.0790023803711 25.42099952697754,83.5790023803711"></path></g></g><g transform="matrix(1,0,0,1,250,250)" opacity="1" style="display: block;"><g opacity="1" transform="matrix(1,0,0,1,0,0)"><path fill="rgb(255,0,0)" fill-opacity="0" d="M0 0"></path><path stroke-linecap="butt" stroke-linejoin="miter" fill-opacity="0" stroke-miterlimit="4" stroke="rgb(185,75,62)" stroke-opacity="1" stroke-width="2" d=" M26.051000595092773,47.974998474121094 C30.530000686645508,45.73500061035156 36.11199951171875,42.944000244140625 39.81100082397461,41.095001220703125"></path></g></g><g transform="matrix(1,0,0,1,250,250)" opacity="1" style="display: block;"><g opacity="1" transform="matrix(1,0,0,1,0,0)"><path fill="rgb(255,0,0)" fill-opacity="0" d="M0 0"></path><path stroke-linecap="butt" stroke-linejoin="miter" fill-opacity="0" stroke-miterlimit="4" stroke="rgb(185,75,62)" stroke-opacity="1" stroke-width="2" d=" M186.73599243164062,-40.61800003051758 C183.18899536132812,-38.845001220703125 168.5,-31.5 168.5,-31.5 C168.5,-31.5 150.5,-40 150.5,-40 C150.5,-40 150.5,-55.66600036621094 150.5,-67.16899871826172"></path></g></g><g transform="matrix(1,0,0,1,250,250)" opacity="1" style="display: block;"><g opacity="1" transform="matrix(1,0,0,1,0,0)"><path fill="rgb(255,0,0)" fill-opacity="0" d="M0 0"></path><path stroke-linecap="butt" stroke-linejoin="miter" fill-opacity="0" stroke-miterlimit="4" stroke="rgb(185,75,62)" stroke-opacity="1" stroke-width="2" d=" M96,-176.2779998779297 C96,-168.59100341796875 96,-162 96,-162 C96,-162 78,-153 78,-153 C78,-153 78,-138.03199768066406 78,-127.2030029296875"></path></g></g><g transform="matrix(1,0,0,1,250,250)" opacity="1" style="display: block;"><g opacity="1" transform="matrix(1,0,0,1,0,0)"><path fill="rgb(255,0,0)" fill-opacity="0" d="M0 0"></path><path stroke-linecap="butt" stroke-linejoin="miter" fill-opacity="0" stroke-miterlimit="4" stroke="rgb(185,75,62)" stroke-opacity="1" stroke-width="2" d=" M175.36700439453125,-117.34700012207031 C170.80599975585938,-115.52200317382812 167,-114 167,-114 C167,-114 151,-124 151,-124 C151,-124 143.74200439453125,-119.91699981689453 138.20599365234375,-116.80400085449219"></path></g></g><g transform="matrix(1,0,0,1,250,250)" opacity="1" style="display: block;"><g opacity="1" transform="matrix(1,0,0,1,0,0)"><path fill="rgb(255,0,0)" fill-opacity="0" d="M0 0"></path><path stroke-linecap="butt" stroke-linejoin="miter" fill-opacity="0" stroke-miterlimit="4" stroke="rgb(185,75,62)" stroke-opacity="1" stroke-width="2" d=" M77,103.88300323486328 C77,97.09500122070312 77,91.5 77,91.5 C77,91.5 96.5,82.5 96.5,82.5 C96.5,82.5 96.5,66.36299896240234 96.5,54.819000244140625"></path></g></g><g transform="matrix(1,0,0,1,250,250)" opacity="1" style="display: block;"><g opacity="1" transform="matrix(1,0,0,1,0,0)"><path fill="rgb(255,0,0)" fill-opacity="0" d="M0 0"></path><path stroke-linecap="butt" stroke-linejoin="miter" fill-opacity="0" stroke-miterlimit="4" stroke="rgb(185,75,62)" stroke-opacity="1" stroke-width="2" d=" M56.310001373291016,84.1760025024414 C58.676998138427734,83.22899627685547 60.5,82.5 60.5,82.5 C60.5,82.5 59.94200134277344,66.60900115966797 59.59199905395508,56.625999450683594"></path></g></g><g transform="matrix(1,0,0,1,250,250)" opacity="1" style="display: block;"><g opacity="1" transform="matrix(1,0,0,1,0,0)"><path fill="rgb(255,0,0)" fill-opacity="0" d="M0 0"></path><path stroke-linecap="butt" stroke-linejoin="miter" fill-opacity="0" stroke-miterlimit="4" stroke="rgb(185,75,62)" stroke-opacity="1" stroke-width="2" d=" M150.5,103.37899780273438 C150.5,96.55500030517578 150.5,91 150.5,91 C150.5,91 132.5,83 132.5,83 C132.5,83 114.5,91 114.5,91 C114.5,91 108.1500015258789,88.01200103759766 102.58000183105469,85.39099884033203"></path></g></g><g transform="matrix(1,0,0,1,250,250)" opacity="1" style="display: block;"><g opacity="1" transform="matrix(1,0,0,1,0,0)"><path stroke-linecap="butt" stroke-linejoin="miter" fill-opacity="0" stroke-miterlimit="4" stroke="rgb(185,75,62)" stroke-opacity="1" stroke-width="2" d="M0 0"></path></g><g opacity="1" transform="matrix(1,0,0,1,0,0)"><path fill="rgb(255,0,0)" fill-opacity="0" d="M0 0"></path><path stroke-linecap="butt" stroke-linejoin="miter" fill-opacity="0" stroke-miterlimit="4" stroke="rgb(185,75,62)" stroke-opacity="1" stroke-width="2" d=" M-123.45500183105469,-13.87399959564209 C-123.65799713134766,-20.069000244140625 -123.86599731445312,-26.399999618530273 -124,-30.5"></path></g><g opacity="1" transform="matrix(1,0,0,1,0,0)"><path fill="rgb(255,0,0)" fill-opacity="0" d="M0 0"></path><path stroke-linecap="butt" stroke-linejoin="miter" fill-opacity="0" stroke-miterlimit="4" stroke="rgb(185,75,62)" stroke-opacity="1" stroke-width="2" d="M0 0"></path></g></g><g transform="matrix(1,0,0,1,250,250)" opacity="1" style="display: block;"><g opacity="1" transform="matrix(1,0,0,1,0,0)"><path stroke-linecap="butt" stroke-linejoin="miter" fill-opacity="0" stroke-miterlimit="4" stroke="rgb(185,75,62)" stroke-opacity="1" stroke-width="2" d="M0 0"></path></g><g opacity="1" transform="matrix(1,0,0,1,0,0)"><path fill="rgb(255,0,0)" fill-opacity="0" d="M0 0"></path><path stroke-linecap="butt" stroke-linejoin="miter" fill-opacity="0" stroke-miterlimit="4" stroke="rgb(185,75,62)" stroke-opacity="1" stroke-width="2" d=" M-184.1750030517578,44.46699905395508 C-180.5709991455078,42.8650016784668 -177.5,41.5 -177.5,41.5 C-177.5,41.5 -176.83299255371094,19.83300018310547 -176.5,9"></path></g></g><g transform="matrix(1,0,0,1,250,250)" opacity="1" style="display: block;"><g opacity="1" transform="matrix(1,0,0,1,0,0)"><path stroke-linecap="butt" stroke-linejoin="miter" fill-opacity="0" stroke-miterlimit="4" stroke="rgb(185,75,62)" stroke-opacity="1" stroke-width="2" d="M0 0"></path></g><g opacity="1" transform="matrix(1,0,0,1,0,0)"><path fill="rgb(255,0,0)" fill-opacity="0" d="M0 0"></path><path stroke-linecap="butt" stroke-linejoin="miter" fill-opacity="0" stroke-miterlimit="4" stroke="rgb(185,75,62)" stroke-opacity="1" stroke-width="2" d=" M-188.9029998779297,-33.09600067138672 C-184.86000061035156,-34.915000915527344 -180.6999969482422,-36.7859992980957 -178,-38"></path></g></g><g transform="matrix(1,0,0,1,250,250)" opacity="1" style="display: block;"><g opacity="1" transform="matrix(1,0,0,1,0,0)"><path stroke-linecap="butt" stroke-linejoin="miter" fill-opacity="0" stroke-miterlimit="4" stroke="rgb(185,75,62)" stroke-opacity="1" stroke-width="2" d="M0 0"></path></g><g opacity="1" transform="matrix(1,0,0,1,0,0)"><path fill="rgb(255,0,0)" fill-opacity="0" d="M0 0"></path><path stroke-linecap="butt" stroke-linejoin="miter" fill-opacity="0" stroke-miterlimit="4" stroke="rgb(185,75,62)" stroke-opacity="1" stroke-width="2" d=" M-149.14300537109375,-75.59400177001953 C-153.0019989013672,-77.4219970703125 -156.9459991455078,-79.29000091552734 -159.5,-80.5"></path></g></g><g transform="matrix(1,0,0,1,250,250)" opacity="1" style="display: block;"><g opacity="1" transform="matrix(1,0,0,1,0,0)"><path stroke-linecap="butt" stroke-linejoin="miter" fill-opacity="0" stroke-miterlimit="4" stroke="rgb(185,75,62)" stroke-opacity="1" stroke-width="2" d="M0 0"></path></g><g opacity="1" transform="matrix(1,0,0,1,0,0)"><path fill="rgb(255,0,0)" fill-opacity="0" d="M0 0"></path><path stroke-linecap="butt" stroke-linejoin="miter" fill-opacity="0" stroke-miterlimit="4" stroke="rgb(185,75,62)" stroke-opacity="1" stroke-width="2" d=" M-30.225000381469727,191.4429931640625 C-30.32699966430664,184.9759979248047 -30.43199920654297,178.3209991455078 -30.5,174"></path></g></g><g transform="matrix(1,0,0,1,250,250)" opacity="1" style="display: block;"><g opacity="1" transform="matrix(1,0,0,1,0,0)"><path stroke-linecap="butt" stroke-linejoin="miter" fill-opacity="0" stroke-miterlimit="4" stroke="rgb(185,75,62)" stroke-opacity="1" stroke-width="2" d="M0 0"></path></g><g opacity="1" transform="matrix(1,0,0,1,0,0)"><path fill="rgb(255,0,0)" fill-opacity="0" d="M0 0"></path><path stroke-linecap="butt" stroke-linejoin="miter" fill-opacity="0" stroke-miterlimit="4" stroke="rgb(185,75,62)" stroke-opacity="1" stroke-width="2" d=" M71.48200225830078,170.24099731445312 C66.51799774169922,167.75900268554688 60,164.5 60,164.5 C60,164.5 60,142.16700744628906 60,131"></path></g></g><g transform="matrix(1,0,0,1,250,250)" opacity="1" style="display: block;"><g opacity="1" transform="matrix(1,0,0,1,0,0)"><path stroke-linecap="butt" stroke-linejoin="miter" fill-opacity="0" stroke-miterlimit="4" stroke="rgb(185,75,62)" stroke-opacity="1" stroke-width="2" d="M0 0"></path></g><g opacity="1" transform="matrix(1,0,0,1,0,0)"><path fill="rgb(255,0,0)" fill-opacity="0" d="M0 0"></path><path stroke-linecap="butt" stroke-linejoin="miter" fill-opacity="0" stroke-miterlimit="4" stroke="rgb(185,75,62)" stroke-opacity="1" stroke-width="2" d=" M-98.83499908447266,170.66700744628906 C-93.4540023803711,168.19500732421875 -86.5,165 -86.5,165 C-86.5,165 -86.5,142.66700744628906 -86.5,131.5"></path></g></g><g transform="matrix(1,0,0,1,250,250)" opacity="1" style="display: block;"><g opacity="1" transform="matrix(1,0,0,1,0,0)"><path stroke-linecap="butt" stroke-linejoin="miter" fill-opacity="0" stroke-miterlimit="4" stroke="rgb(185,75,62)" stroke-opacity="1" stroke-width="2" d="M0 0"></path></g><g opacity="1" transform="matrix(1,0,0,1,0,0)"><path fill="rgb(255,0,0)" fill-opacity="0" d="M0 0"></path><path stroke-linecap="butt" stroke-linejoin="miter" fill-opacity="0" stroke-miterlimit="4" stroke="rgb(185,75,62)" stroke-opacity="1" stroke-width="2" d=" M-169.38299560546875,126.80799865722656 C-163.7310028076172,129.63499450683594 -157,133 -157,133 C-157,133 -146.33299255371094,127 -141,124"></path></g></g><g transform="matrix(1,0,0,1,250,250)" opacity="1" style="display: block;"><g opacity="1" transform="matrix(1,0,0,1,0,0)"><path stroke-linecap="butt" stroke-linejoin="miter" fill-opacity="0" stroke-miterlimit="4" stroke="rgb(185,75,62)" stroke-opacity="1" stroke-width="2" d="M0 0"></path></g><g opacity="1" transform="matrix(1,0,0,1,0,0)"><path fill="rgb(255,0,0)" fill-opacity="0" d="M0 0"></path><path stroke-linecap="butt" stroke-linejoin="miter" fill-opacity="0" stroke-miterlimit="4" stroke="rgb(185,75,62)" stroke-opacity="1" stroke-width="2" d=" M187,37.58599853515625 C187,30.759000778198242 187,16.62700080871582 187,8.5"></path></g></g><g transform="matrix(1,0,0,1,250,250)" opacity="1" style="display: block;"><g opacity="1" transform="matrix(1,0,0,1,0,0)"><path stroke-linecap="butt" stroke-linejoin="miter" fill-opacity="0" stroke-miterlimit="4" stroke="rgb(185,75,62)" stroke-opacity="1" stroke-width="2" d="M0 0"></path></g><g opacity="1" transform="matrix(1,0,0,1,0,0)"><path fill="rgb(255,0,0)" fill-opacity="0" d="M0 0"></path><path stroke-linecap="butt" stroke-linejoin="miter" fill-opacity="0" stroke-miterlimit="4" stroke="rgb(185,75,62)" stroke-opacity="1" stroke-width="2" d=" M205.89100646972656,-161.61000061035156 C205.3260040283203,-161.85800170898438 205,-162 205,-162 C205,-162 193.66700744628906,-156.66700744628906 188,-154"></path></g></g><g transform="matrix(1,0,0,1,250,250)" opacity="1" style="display: block;"><g opacity="1" transform="matrix(1,0,0,1,0,0)"><path stroke-linecap="butt" stroke-linejoin="miter" fill-opacity="0" stroke-miterlimit="4" stroke="rgb(185,75,62)" stroke-opacity="1" stroke-width="2" d="M0 0"></path></g><g opacity="1" transform="matrix(1,0,0,1,0,0)"><path fill="rgb(255,0,0)" fill-opacity="0" d="M0 0"></path><path stroke-linecap="butt" stroke-linejoin="miter" fill-opacity="0" stroke-miterlimit="4" stroke="rgb(185,75,62)" stroke-opacity="1" stroke-width="2" d=" M-205.89999389648438,-202.08900451660156 C-201.85800170898438,-199.46099853515625 -197.6999969482422,-196.75599670410156 -195,-195"></path></g></g><g transform="matrix(1,0,0,1,250,250)" opacity="1" style="display: block;"><g opacity="1" transform="matrix(1,0,0,1,0,0)"><path stroke-linecap="butt" stroke-linejoin="miter" fill-opacity="0" stroke-miterlimit="4" stroke="rgb(185,75,62)" stroke-opacity="1" stroke-width="2" d="M0 0"></path></g><g opacity="1" transform="matrix(1,0,0,1,0,0)"><path fill="rgb(185,75,62)" fill-opacity="0" d="M0 0"></path><path stroke-linecap="butt" stroke-linejoin="miter" fill-opacity="0" stroke-miterlimit="4" stroke="rgb(185,75,62)" stroke-opacity="1" stroke-width="2" d=" M41.224998474121094,-220.4429931640625 C41.32600021362305,-213.9759979248047 41.430999755859375,-207.3209991455078 41.5,-203"></path></g></g><g transform="matrix(1,0,0,1,250,250)" opacity="1" style="display: block;"><g opacity="1" transform="matrix(1,0,0,1,0,0)"><path stroke-linecap="butt" stroke-linejoin="miter" fill-opacity="0" stroke-miterlimit="4" stroke="rgb(185,75,62)" stroke-opacity="1" stroke-width="2" d="M0 0"></path></g><g opacity="1" transform="matrix(1,0,0,1,0,0)"><path fill="rgb(185,75,62)" fill-opacity="0" d="M0 0"></path><path stroke-linecap="butt" stroke-linejoin="miter" fill-opacity="0" stroke-miterlimit="4" stroke="rgb(185,75,62)" stroke-opacity="1" stroke-width="2" d=" M151.82899475097656,-210.71099853515625 C151.92999267578125,-206.30999755859375 152,-203.25 152,-203.25 C152,-203.25 131,-194.25 131,-194.25"></path></g></g><g transform="matrix(1,0,0,1,250,250)" opacity="1" style="display: block;"><g opacity="1" transform="matrix(1,0,0,1,0,0)"><path stroke-linecap="butt" stroke-linejoin="miter" fill-opacity="0" stroke-miterlimit="4" stroke="rgb(185,75,62)" stroke-opacity="1" stroke-width="2" d="M0 0"></path></g><g opacity="1" transform="matrix(1,0,0,1,0,0)"><path fill="rgb(185,75,62)" fill-opacity="0" d="M0 0"></path><path stroke-linecap="butt" stroke-linejoin="miter" fill-opacity="0" stroke-miterlimit="4" stroke="rgb(185,75,62)" stroke-opacity="1" stroke-width="2" d=" M178.80999755859375,-199.90899658203125 C175.1719970703125,-198.08999633789062 171.42999267578125,-196.21600341796875 169,-195"></path></g></g><g transform="matrix(1,0,0,1,250,250)" opacity="1" style="display: block;"><g opacity="1" transform="matrix(1,0,0,1,0,0)"><path stroke-linecap="butt" stroke-linejoin="miter" fill-opacity="0" stroke-miterlimit="4" stroke="rgb(185,75,62)" stroke-opacity="1" stroke-width="2" d="M0 0"></path></g><g opacity="1" transform="matrix(1,0,0,1,0,0)"><path fill="rgb(185,75,62)" fill-opacity="0" d="M0 0"></path><path stroke-linecap="butt" stroke-linejoin="miter" fill-opacity="0" stroke-miterlimit="4" stroke="rgb(185,75,62)" stroke-opacity="1" stroke-width="2" d=" M133.281005859375,150.18800354003906 C133.14599609375,141.72300720214844 133,132.5 133,132.5 C133,132.5 120.66699981689453,126.5 114.5,123.5"></path></g></g><g transform="matrix(1,0,0,1,250,250)" opacity="1" style="display: block;"><g opacity="1" transform="matrix(1,0,0,1,0,0)"><path stroke-linecap="butt" stroke-linejoin="miter" fill-opacity="0" stroke-miterlimit="4" stroke="rgb(185,75,62)" stroke-opacity="1" stroke-width="2" d="M0 0"></path></g><g opacity="1" transform="matrix(1,0,0,1,0,0)"><path fill="rgb(185,75,62)" fill-opacity="0" d="M0 0"></path><path stroke-linecap="butt" stroke-linejoin="miter" fill-opacity="0" stroke-miterlimit="4" stroke="rgb(185,75,62)" stroke-opacity="1" stroke-width="2" d=" M178.6959991455078,169.13699340820312 C175.00799560546875,167.41900634765625 171.21400451660156,165.6490020751953 168.75,164.5"></path></g></g><g transform="matrix(1,0,0,1,250,250)" opacity="1" style="display: block;"><g opacity="1" transform="matrix(1,0,0,1,0,0)"><path stroke-linecap="butt" stroke-linejoin="miter" fill-opacity="0" stroke-miterlimit="4" stroke="rgb(185,75,62)" stroke-opacity="1" stroke-width="2" d="M0 0"></path></g><g opacity="1" transform="matrix(1,0,0,1,0,0)"><path fill="rgb(185,75,62)" fill-opacity="0" d="M0 0"></path><path stroke-linecap="butt" stroke-linejoin="miter" fill-opacity="0" stroke-miterlimit="4" stroke="rgb(185,75,62)" stroke-opacity="1" stroke-width="2" d=" M189.20199584960938,89.52400207519531 C188.13999938964844,89.97699737548828 187.5,90.25 187.5,90.25 C187.5,90.25 175.16700744628906,84.58300018310547 169,81.75"></path></g><g opacity="1" transform="matrix(1,0,0,1,0,0)"><path fill="rgb(185,75,62)" fill-opacity="0" d="M0 0"></path><path stroke-linecap="butt" stroke-linejoin="miter" fill-opacity="0" stroke-miterlimit="4" stroke="rgb(185,75,62)" stroke-opacity="1" stroke-width="2" d="M0 0"></path></g></g><g transform="matrix(1,0,0,1,250,250)" opacity="1" style="display: block;"><g opacity="1" transform="matrix(1,0,0,1,0,0)"><path stroke-linecap="butt" stroke-linejoin="miter" fill-opacity="0" stroke-miterlimit="4" stroke="rgb(185,75,62)" stroke-opacity="1" stroke-width="2" d="M0 0"></path></g><g opacity="1" transform="matrix(1,0,0,1,0,0)"><path fill="rgb(185,75,62)" fill-opacity="0" d="M0 0"></path><path stroke-linecap="butt" stroke-linejoin="miter" fill-opacity="0" stroke-miterlimit="4" stroke="rgb(185,75,62)" stroke-opacity="1" stroke-width="2" d=" M96.5469970703125,150.0330047607422 C96.34500122070312,143.16200256347656 96.13600158691406,136.09100341796875 96,131.5"></path></g></g></g></g></g></svg>