<svg xmlns="http://www.w3.org/2000/svg" viewBox="0 0 420 420" width="420" height="420" preserveAspectRatio="xMidYMid meet" style="width: 100%; height: 100%; transform: translate3d(0px, 0px, 0px);"><defs><clipPath id="__lottie_element_2"><rect width="420" height="420" x="0" y="0"></rect></clipPath><clipPath id="__lottie_element_4"><path d="M0,0 L500,0 L500,500 L0,500z"></path></clipPath><clipPath id="__lottie_element_5"><path fill="#ffffff" clip-rule="nonzero" d=" M253.92599487304688,5.081999778747559 C141.25999450683594,5.081999778747559 49.92599868774414,96.41600036621094 49.92599868774414,209.08200073242188 C49.92599868774414,321.74798583984375 141.25999450683594,413.0820007324219 253.92599487304688,413.0820007324219 C366.5920104980469,413.0820007324219 457.9259948730469,321.74798583984375 457.9259948730469,209.08200073242188 C457.9259948730469,96.41600036621094 366.5920104980469,5.081999778747559 253.92599487304688,5.081999778747559" fill-opacity="1"></path></clipPath></defs><g clip-path="url(#__lottie_element_2)"><g clip-path="url(#__lottie_element_4)" transform="matrix(1,0,0,1,-43,0.75)" opacity="1" style="display: block;"><g clip-path="url(#__lottie_element_5)"><g transform="matrix(1,0,0,1,249,250.5)" opacity="1" style="display: block;"><g opacity="1" transform="matrix(1,0,0,1,0,0)"><path fill="rgb(255,0,0)" fill-opacity="0" d="M0 0"></path><path stroke-linecap="butt" stroke-linejoin="miter" fill-opacity="0" stroke-miterlimit="4" stroke="rgb(185,75,62)" stroke-opacity="1" stroke-width="2" d=" M-105.5,109.61900329589844 C-105.5,103.17400360107422 -105.5,91 -105.5,91 C-105.5,91 -86.5,81.5 -86.5,81.5 C-86.5,81.5 -87,49.5 -87,49.5 C-87,49.5 -68,41.5 -68,41.5 C-68,41.5 -67,8.5 -67,8.5 C-67,8.5 -52.34199905395508,1.3799999952316284 -49.85599899291992,0.17299999296665192"></path></g></g><g transform="matrix(1,0,0,1,249,250.5)" opacity="1" style="display: block;"><g opacity="1" transform="matrix(1,0,0,1,0,0)"><path fill="rgb(255,0,0)" fill-opacity="0" d="M0 0"></path><path stroke-linecap="butt" stroke-linejoin="miter" fill-opacity="0" stroke-miterlimit="4" stroke="rgb(185,75,62)" stroke-opacity="1" stroke-width="2" d=" M-122.18699645996094,-80.8479995727539 C-116.26000213623047,-77.96900177001953 -105,-72.5 -105,-72.5 C-105,-72.5 -86,-81 -86,-81 C-86,-81 -86.5,-113 -86.5,-113 C-86.5,-113 -68.5,-123 -68.5,-123 C-68.5,-123 -50,-113.5 -50,-113.5 C-50,-113.5 -50,-103.38600158691406 -50,-94.44200134277344"></path></g></g><g transform="matrix(1,0,0,1,249,250.5)" opacity="1" style="display: block;"><g opacity="1" transform="matrix(1,0,0,1,0,0)"><path fill="rgb(255,0,0)" fill-opacity="0" d="M0 0"></path><path stroke-linecap="butt" stroke-linejoin="miter" fill-opacity="0" stroke-miterlimit="4" stroke="rgb(185,75,62)" stroke-opacity="1" stroke-width="2" d=" M-104.85099792480469,8.675999641418457 C-98.72000122070312,5.6529998779296875 -86.75,-0.25 -86.75,-0.25 C-86.75,-0.25 -86.75,-31.75 -86.75,-31.75 C-86.75,-31.75 -92.177001953125,-34.426998138427734 -97.19200134277344,-36.9010009765625"></path></g></g><g transform="matrix(1,0,0,1,249,250.5)" opacity="1" style="display: block;"><g opacity="1" transform="matrix(1,0,0,1,0,0)"><path fill="rgb(255,0,0)" fill-opacity="0" d="M0 0"></path><path stroke-linecap="butt" stroke-linejoin="miter" fill-opacity="0" stroke-miterlimit="4" stroke="rgb(185,75,62)" stroke-opacity="1" stroke-width="2" d=" M-50.5,-192 C-50.16699981689453,-182 -49.5,-162 -49.5,-162 C-49.5,-162 -31.5,-154 -31.5,-154 C-31.5,-154 -31.579999923706055,-148.906005859375 -31.674999237060547,-142.78199768066406"></path></g></g><g transform="matrix(1,0,0,1,249,251)" opacity="1" style="display: block;"><g opacity="1" transform="matrix(1,0,0,1,0,0)"><path fill="rgb(255,0,0)" fill-opacity="0" d="M0 0"></path><path stroke-linecap="butt" stroke-linejoin="miter" fill-opacity="0" stroke-miterlimit="4" stroke="rgb(185,75,62)" stroke-opacity="1" stroke-width="2" d=" M-86.11599731445312,-80.69000244140625 C-80.072998046875,-78.00399780273438 -68.25,-72.75 -68.25,-72.75 C-68.25,-72.75 -68,-40.5 -68,-40.5 C-68,-40.5 -66.53600311279297,-39.808998107910156 -64.44300079345703,-38.81999969482422"></path></g></g><g transform="matrix(1,0,0,1,249,250.5)" opacity="1" style="display: block;"><g opacity="1" transform="matrix(1,0,0,1,0,0)"><path fill="rgb(255,0,0)" fill-opacity="0" d="M0 0"></path><path stroke-linecap="butt" stroke-linejoin="miter" fill-opacity="0" stroke-miterlimit="4" stroke="rgb(185,75,62)" stroke-opacity="1" stroke-width="2" d=" M-49.5,165.1300048828125 C-49.5,154.01499938964844 -49.5,132.5 -49.5,132.5 C-49.5,132.5 -67.5,124 -67.5,124 C-67.5,124 -67.5,91 -67.5,91 C-67.5,91 -50,82 -50,82 C-50,82 -31.5,91.5 -31.5,91.5 C-31.5,91.5 -24.076000213623047,87.68800354003906 -18.634000778198242,84.89299774169922"></path></g></g><g transform="matrix(1,0,0,1,249,250.5)" opacity="1" style="display: block;"><g opacity="1" transform="matrix(1,0,0,1,0,0)"><path fill="rgb(255,0,0)" fill-opacity="0" d="M0 0"></path><path stroke-linecap="butt" stroke-linejoin="miter" fill-opacity="0" stroke-miterlimit="4" stroke="rgb(185,75,62)" stroke-opacity="1" stroke-width="2" d=" M-159.3350067138672,1.0729999542236328 C-153.2830047607422,3.763000011444092 -141.5,9 -141.5,9 C-141.5,9 -122.5,-0.5 -122.5,-0.5 C-122.5,-0.5 -105,9 -105,9 C-105,9 -105,12.383999824523926 -105,16.950000762939453"></path></g></g><g transform="matrix(1,0,0,1,249,250.5)" opacity="1" style="display: block;"><g opacity="1" transform="matrix(1,0,0,1,0,0)"><path fill="rgb(255,0,0)" fill-opacity="0" d="M0 0"></path><path stroke-linecap="butt" stroke-linejoin="miter" fill-opacity="0" stroke-miterlimit="4" stroke="rgb(185,75,62)" stroke-opacity="1" stroke-width="2" d=" M-195.45199584960938,-113.88700103759766 C-189.36199951171875,-116.6780014038086 -177.75,-122 -177.75,-122 C-177.75,-122 -158.75,-112.75 -158.75,-112.75 C-158.75,-112.75 -159.25,-80.75 -159.25,-80.75 C-159.25,-80.75 -178.25,-72.5 -178.25,-72.5 C-178.25,-72.5 -177.01499938964844,-48.8489990234375 -176.6199951171875,-41.29199981689453"></path></g></g><g transform="matrix(1,0,0,1,249,250.5)" opacity="1" style="display: block;"><g opacity="1" transform="matrix(1,0,0,1,0,0)"><path fill="rgb(255,0,0)" fill-opacity="0" d="M0 0"></path><path stroke-linecap="butt" stroke-linejoin="miter" fill-opacity="0" stroke-miterlimit="4" stroke="rgb(185,75,62)" stroke-opacity="1" stroke-width="2" d=" M-87,-31 C-84.16400146484375,-32.49399948120117 -79.63300323486328,-34.88199996948242 -75.43099975585938,-37.09299850463867"></path></g></g><g transform="matrix(1,0,0,1,249,250.5)" opacity="1" style="display: block;"><g opacity="1" transform="matrix(1,0,0,1,0,0)"><path fill="rgb(255,0,0)" fill-opacity="0" d="M0 0"></path><path stroke-linecap="butt" stroke-linejoin="miter" fill-opacity="0" stroke-miterlimit="4" stroke="rgb(185,75,62)" stroke-opacity="1" stroke-width="2" d=" M-141.4949951171875,-235.68299865722656 C-141.32699584960938,-224.75100708007812 -141,-203.5 -141,-203.5 C-141,-203.5 -123,-193.5 -123,-193.5 C-123,-193.5 -104,-203 -104,-203 C-104,-203 -86.5,-195 -86.5,-195 C-86.5,-195 -86.5,-177.41400146484375 -86.5,-167.91799926757812"></path></g></g><g transform="matrix(1,0,0,1,249,250.5)" opacity="1" style="display: block;"><g opacity="1" transform="matrix(1,0,0,1,0,0)"><path fill="rgb(255,0,0)" fill-opacity="0" d="M0 0"></path><path stroke-linecap="butt" stroke-linejoin="miter" fill-opacity="0" stroke-miterlimit="4" stroke="rgb(185,75,62)" stroke-opacity="1" stroke-width="2" d=" M-13.5,165 C-13.5,154.79299926757812 -13.5,134.81900024414062 -13.5,133.11599731445312"></path></g></g><g transform="matrix(1,0,0,1,249,250.5)" opacity="1" style="display: block;"><g opacity="1" transform="matrix(1,0,0,1,0,0)"><path fill="rgb(255,0,0)" fill-opacity="0" d="M0 0"></path><path stroke-linecap="butt" stroke-linejoin="miter" fill-opacity="0" stroke-miterlimit="4" stroke="rgb(185,75,62)" stroke-opacity="1" stroke-width="2" d=" M-122,131 C-116.33300018310547,128.5 -105,123.5 -105,123.5 C-105,123.5 -94.16000366210938,128.3489990234375 -88.85600280761719,130.7220001220703"></path></g></g><g transform="matrix(1,0,0,1,249,250.5)" opacity="1" style="display: block;"><g opacity="1" transform="matrix(1,0,0,1,0,0)"><path fill="rgb(255,0,0)" fill-opacity="0" d="M0 0"></path><path stroke-linecap="butt" stroke-linejoin="miter" fill-opacity="0" stroke-miterlimit="4" stroke="rgb(185,75,62)" stroke-opacity="1" stroke-width="2" d=" M-67.5,90.75 C-70.26399993896484,89.48500061035156 -74.677001953125,87.45800018310547 -78.76799774169922,85.5770034790039"></path></g></g><g transform="matrix(1,0,0,1,249,250.5)" opacity="1" style="display: block;"><g opacity="1" transform="matrix(1,0,0,1,0,0)"><path fill="rgb(255,0,0)" fill-opacity="0" d="M0 0"></path><path stroke-linecap="butt" stroke-linejoin="miter" fill-opacity="0" stroke-miterlimit="4" stroke="rgb(185,75,62)" stroke-opacity="1" stroke-width="2" d=" M-50,81.5 C-50,71.16699981689453 -50,50.5 -50,50.5 C-50,50.5 -50,50.5 -50,50.5"></path></g></g><g transform="matrix(1,0,0,1,249,250.5)" opacity="1" style="display: block;"><g opacity="1" transform="matrix(1,0,0,1,0,0)"><path fill="rgb(255,0,0)" fill-opacity="1" d="M0 0"></path><path stroke-linecap="butt" stroke-linejoin="miter" fill-opacity="0" stroke-miterlimit="4" stroke="rgb(185,75,62)" stroke-opacity="1" stroke-width="2" d=" M-50,0.5 C-50,-4.425000190734863 -50,-11.996000289916992 -50,-18.988000869750977"></path></g></g><g transform="matrix(1,0,0,1,249,250.5)" opacity="1" style="display: block;"><g opacity="1" transform="matrix(1,0,0,1,0,0)"><path fill="rgb(255,0,0)" fill-opacity="0" d="M0 0"></path><path stroke-linecap="butt" stroke-linejoin="miter" fill-opacity="0" stroke-miterlimit="4" stroke="rgb(185,75,62)" stroke-opacity="1" stroke-width="2" d=" M95.5,1 C95.5,-4.156000137329102 95.5,-12.081000328063965 95.5,-19.402000427246094"></path></g></g><g transform="matrix(1,0,0,1,249,250.5)" opacity="1" style="display: block;"><g opacity="1" transform="matrix(1,0,0,1,0,0)"><path fill="rgb(255,0,0)" fill-opacity="0" d="M0 0"></path><path stroke-linecap="butt" stroke-linejoin="miter" fill-opacity="0" stroke-miterlimit="4" stroke="rgb(185,75,62)" stroke-opacity="1" stroke-width="2" d=" M-31.5,-121.5 C-28.652999877929688,-120.34600067138672 -24.275999069213867,-118.5719985961914 -20.232999801635742,-116.93299865722656"></path></g></g><g transform="matrix(1,0,0,1,249,250.5)" opacity="1" style="display: block;"><g opacity="1" transform="matrix(1,0,0,1,0,0)"><path fill="rgb(255,0,0)" fill-opacity="0" d="M0 0"></path><path stroke-linecap="butt" stroke-linejoin="miter" fill-opacity="0" stroke-miterlimit="4" stroke="rgb(185,75,62)" stroke-opacity="1" stroke-width="2" d=" M-196.5,-163 C-189.83299255371094,-160 -176.5,-154 -176.5,-154 C-176.5,-154 -160,-162.5 -160,-162.5 C-160,-162.5 -142,-155.5 -142,-155.5 C-142,-155.5 -141,-121.5 -141,-121.5 C-141,-121.5 -130.71400451660156,-117.5 -125.69300079345703,-115.5469970703125"></path></g></g><g transform="matrix(1,0,0,1,249,250.5)" opacity="1" style="display: block;"><g opacity="1" transform="matrix(1,0,0,1,0,0)"><path fill="rgb(255,0,0)" fill-opacity="0" d="M0 0"></path><path stroke-linecap="butt" stroke-linejoin="miter" fill-opacity="0" stroke-miterlimit="4" stroke="rgb(185,75,62)" stroke-opacity="1" stroke-width="2" d=" M-12.326000213623047,-243.91000366210938 C-6.770999908447266,-241.0489959716797 4,-235.5 4,-235.5 C4,-235.5 5.5,-204.5 5.5,-204.5 C5.5,-204.5 -13.5,-196 -13.5,-196 C-13.5,-196 -13.45199966430664,-194.3509979248047 -13.37600040435791,-191.77999877929688"></path></g></g><g transform="matrix(1,0,0,1,249,250.5)" opacity="1" style="display: block;"><g opacity="1" transform="matrix(1,0,0,1,0,0)"><path fill="rgb(255,0,0)" fill-opacity="0" d="M0 0"></path><path stroke-linecap="butt" stroke-linejoin="miter" fill-opacity="0" stroke-miterlimit="4" stroke="rgb(185,75,62)" stroke-opacity="1" stroke-width="2" d=" M-32,125 C-32.145999908447266,119.77400207519531 -32.3849983215332,111.4260025024414 -32.606998443603516,103.68499755859375"></path></g></g><g transform="matrix(1,0,0,1,249,250.5)" opacity="1" style="display: block;"><g opacity="1" transform="matrix(1,0,0,1,0,0)"><path fill="rgb(255,0,0)" fill-opacity="0" d="M0 0"></path><path stroke-linecap="butt" stroke-linejoin="miter" fill-opacity="0" stroke-miterlimit="4" stroke="rgb(185,75,62)" stroke-opacity="1" stroke-width="2" d=" M-68.5,-153.5 C-68.5,-148.72900390625 -68.5,-141.39500427246094 -68.5,-134.62100219726562"></path></g></g><g transform="matrix(1,0,0,1,249,250.5)" opacity="1" style="display: block;"><g opacity="1" transform="matrix(1,0,0,1,0,0)"><path fill="rgb(255,0,0)" fill-opacity="0" d="M0 0"></path><path stroke-linecap="butt" stroke-linejoin="miter" fill-opacity="0" stroke-miterlimit="4" stroke="rgb(185,75,62)" stroke-opacity="1" stroke-width="2" d=" M-122,-163 C-119.3219985961914,-161.4669952392578 -115.0260009765625,-159.02099609375 -111.04000091552734,-156.75399780273438"></path></g></g><g transform="matrix(1,0,0,1,249,250.5)" opacity="1" style="display: block;"><g opacity="1" transform="matrix(1,0,0,1,0,0)"><path fill="rgb(255,0,0)" fill-opacity="0" d="M0 0"></path><path stroke-linecap="butt" stroke-linejoin="miter" fill-opacity="0" stroke-miterlimit="4" stroke="rgb(185,75,62)" stroke-opacity="1" stroke-width="2" d=" M-141,90 C-135,87.66699981689453 -123,83 -123,83 C-123,83 -123,70.12100219726562 -123,60.215999603271484"></path></g></g><g transform="matrix(1,0,0,1,249,250.5)" opacity="1" style="display: block;"><g opacity="1" transform="matrix(1,0,0,1,0,0)"><path fill="rgb(255,0,0)" fill-opacity="0" d="M0 0"></path><path stroke-linecap="butt" stroke-linejoin="miter" fill-opacity="0" stroke-miterlimit="4" stroke="rgb(185,75,62)" stroke-opacity="1" stroke-width="2" d=" M-176,9 C-170.33299255371094,6 -159,0 -159,0 C-159,0 -141,8 -141,8 C-141,8 -141,9.937999725341797 -141,12.87399959564209"></path></g></g><g transform="matrix(1,0,0,1,249,250.5)" opacity="1" style="display: block;"><g opacity="1" transform="matrix(1,0,0,1,0,0)"><path fill="rgb(255,0,0)" fill-opacity="0" d="M0 0"></path><path stroke-linecap="butt" stroke-linejoin="miter" fill-opacity="0" stroke-miterlimit="4" stroke="rgb(185,75,62)" stroke-opacity="1" stroke-width="2" d=" M-67.5,-235.5 C-67.5,-224.66700744628906 -67.5,-203 -67.5,-203 C-67.5,-203 -52.08399963378906,-196.1479949951172 -49.78499984741211,-195.1269989013672"></path></g></g><g transform="matrix(1,0,0,1,249,250.5)" opacity="1" style="display: block;"><g opacity="1" transform="matrix(1,0,0,1,0,0)"><path stroke-linecap="butt" stroke-linejoin="miter" fill-opacity="0" stroke-miterlimit="4" stroke="rgb(185,75,62)" stroke-opacity="1" stroke-width="2" d="M0 0"></path></g><g opacity="1" transform="matrix(1,0,0,1,0,0)"><path fill="rgb(255,0,0)" fill-opacity="0" d="M0 0"></path><path stroke-linecap="butt" stroke-linejoin="miter" fill-opacity="0" stroke-miterlimit="4" stroke="rgb(185,75,62)" stroke-opacity="1" stroke-width="2" d=" M-178,-204 C-171.5,-200.83299255371094 -158.5,-194.5 -158.5,-194.5 C-158.5,-194.5 -157.1479949951172,-195.17599487304688 -155.12399291992188,-196.18800354003906"></path></g></g><g transform="matrix(1,0,0,1,250,250)" opacity="1" style="display: block;"><g opacity="1" transform="matrix(1,0,0,1,0,0)"><path fill="rgb(255,0,0)" fill-opacity="0" d="M0 0"></path><path stroke-linecap="butt" stroke-linejoin="miter" fill-opacity="0" stroke-miterlimit="4" stroke="rgb(185,75,62)" stroke-opacity="1" stroke-width="2" d=" M77.68800354003906,89.8479995727539 C71.59500122070312,86.88600158691406 60,81.25 60,81.25 C60,81.25 60,49.5 60,49.5 C60,49.5 78.25,40.25 78.25,40.25 C78.25,40.25 77.5,9.25 77.5,9.25 C77.5,9.25 59.5,0 59.5,0 C59.5,0 55.816001892089844,1.7430000305175781 51.73500061035156,3.671999931335449"></path></g></g><g transform="matrix(1,0,0,1,250,250)" opacity="1" style="display: block;"><g opacity="1" transform="matrix(1,0,0,1,0,0)"><path fill="rgb(255,0,0)" fill-opacity="0" d="M0 0"></path><path stroke-linecap="butt" stroke-linejoin="miter" fill-opacity="0" stroke-miterlimit="4" stroke="rgb(185,75,62)" stroke-opacity="1" stroke-width="2" d=" M78.24400329589844,-154.62100219726562 C72.16500091552734,-157.49099731445312 60.5,-163 60.5,-163 C60.5,-163 41.5,-154 41.5,-154 C41.5,-154 41,-122.5 41,-122.5 C41,-122.5 23,-114 23,-114 C23,-114 23,-106.31900024414062 23,-98.4260025024414"></path></g></g><g transform="matrix(1,0,0,1,250,250)" opacity="1" style="display: block;"><g opacity="1" transform="matrix(1,0,0,1,0,0)"><path fill="rgb(255,0,0)" fill-opacity="0" d="M0 0"></path><path stroke-linecap="butt" stroke-linejoin="miter" fill-opacity="0" stroke-miterlimit="4" stroke="rgb(185,75,62)" stroke-opacity="1" stroke-width="2" d=" M114.72599792480469,-40.39099884033203 C107.97599792480469,-37.689998626708984 95,-32.5 95,-32.5 C95,-32.5 78.5,-40 78.5,-40 C78.5,-40 78.5,-71.5 78.5,-71.5 C78.5,-71.5 59,-81 59,-81 C59,-81 45.72800064086914,-74.54299926757812 41.66699981689453,-72.56700134277344"></path></g></g><g transform="matrix(1,0,0,1,250,250)" opacity="1" style="display: block;"><g opacity="1" transform="matrix(1,0,0,1,0,0)"><path fill="rgb(255,0,0)" fill-opacity="0" d="M0 0"></path><path stroke-linecap="butt" stroke-linejoin="miter" fill-opacity="0" stroke-miterlimit="4" stroke="rgb(185,75,62)" stroke-opacity="1" stroke-width="2" d=" M22.503999710083008,-196.74400329589844 C22.672000885009766,-184.99600219726562 23,-162 23,-162 C23,-162 4,-154 4,-154 C4,-154 5,-122 5,-122 C5,-122 0.6600000262260437,-120.05799865722656 -3.871999979019165,-118.03099822998047"></path></g><g opacity="1" transform="matrix(1,0,0,1,0,0)"><path fill="rgb(255,0,0)" fill-opacity="0" d="M0 0"></path><path stroke-linecap="butt" stroke-linejoin="miter" fill-opacity="0" stroke-miterlimit="4" stroke="rgb(185,75,62)" stroke-opacity="1" stroke-width="2" d="M0 0"></path></g></g><g transform="matrix(1,0,0,1,250,250)" opacity="1" style="display: block;"><g opacity="1" transform="matrix(1,0,0,1,0,0)"><path fill="rgb(255,0,0)" fill-opacity="0" d="M0 0"></path><path stroke-linecap="butt" stroke-linejoin="miter" fill-opacity="0" stroke-miterlimit="4" stroke="rgb(185,75,62)" stroke-opacity="1" stroke-width="2" d=" M131.7969970703125,-81.38999938964844 C125.9010009765625,-78.18900299072266 114.5,-72 114.5,-72 C114.5,-72 96,-80.5 96,-80.5 C96,-80.5 95,-113 95,-113 C95,-113 86.48699951171875,-116.89199829101562 81.33599853515625,-119.24600219726562"></path></g></g><g transform="matrix(1,0,0,1,250,250)" opacity="1" style="display: block;"><g opacity="1" transform="matrix(1,0,0,1,0,0)"><path fill="rgb(255,0,0)" fill-opacity="0" d="M0 0"></path><path stroke-linecap="butt" stroke-linejoin="miter" fill-opacity="0" stroke-miterlimit="4" stroke="rgb(185,75,62)" stroke-opacity="1" stroke-width="2" d=" M23.4950008392334,164.66600036621094 C23.326000213623047,153.72900390625 23,132.5 23,132.5 C23,132.5 4.5,123 4.5,123 C4.5,123 6,90 6,90 C6,90 23,82 23,82 C23,82 23,69.24600219726562 23,59.96900177001953"></path></g></g><g transform="matrix(1,0,0,1,250,250)" opacity="1" style="display: block;"><g opacity="1" transform="matrix(1,0,0,1,0,0)"><path fill="rgb(255,0,0)" fill-opacity="0" d="M0 0"></path><path stroke-linecap="butt" stroke-linejoin="miter" fill-opacity="0" stroke-miterlimit="4" stroke="rgb(185,75,62)" stroke-opacity="1" stroke-width="2" d=" M59,-32 C56.244998931884766,-33.26599884033203 51.82899856567383,-35.29499816894531 47.73400115966797,-37.176998138427734"></path></g></g><g transform="matrix(1,0,0,1,250,250)" opacity="1" style="display: block;"><g opacity="1" transform="matrix(1,0,0,1,0,0)"><path fill="rgb(255,0,0)" fill-opacity="0" d="M0 0"></path><path stroke-linecap="butt" stroke-linejoin="miter" fill-opacity="0" stroke-miterlimit="4" stroke="rgb(185,75,62)" stroke-opacity="1" stroke-width="2" d=" M169.80499267578125,49.90700149536133 C163.41000366210938,46.87799835205078 151,41 151,41 C151,41 132.5,51 132.5,51 C132.5,51 114.5,42 114.5,42 C114.5,42 114.5,31.003999710083008 114.5,21.804000854492188"></path></g></g><g transform="matrix(1,0,0,1,250,250)" opacity="1" style="display: block;"><g opacity="1" transform="matrix(1,0,0,1,0,0)"><path fill="rgb(255,0,0)" fill-opacity="0" d="M0 0"></path><path stroke-linecap="butt" stroke-linejoin="miter" fill-opacity="0" stroke-miterlimit="4" stroke="rgb(185,75,62)" stroke-opacity="1" stroke-width="2" d=" M40.5,-72.5 C37.849998474121094,-73.80799865722656 33.617000579833984,-75.89700317382812 29.691999435424805,-77.83200073242188"></path></g></g><g transform="matrix(1,0,0,1,250,250)" opacity="1" style="display: block;"><g opacity="1" transform="matrix(1,0,0,1,0,0)"><path fill="rgb(255,0,0)" fill-opacity="0" d="M0 0"></path><path stroke-linecap="butt" stroke-linejoin="miter" fill-opacity="0" stroke-miterlimit="4" stroke="rgb(185,75,62)" stroke-opacity="1" stroke-width="2" d=" M60,49 C53.66699981689453,46.16699981689453 41,40.5 41,40.5 C41,40.5 41,35.654998779296875 41,29.454999923706055"></path></g></g><g transform="matrix(1,0,0,1,250,250)" opacity="1" style="display: block;"><g opacity="1" transform="matrix(1,0,0,1,0,0)"><path fill="rgb(255,0,0)" fill-opacity="0" d="M0 0"></path><path stroke-linecap="butt" stroke-linejoin="miter" fill-opacity="0" stroke-miterlimit="4" stroke="rgb(185,75,62)" stroke-opacity="1" stroke-width="2" d=" M132.5,-194 C132.5,-194 133,-162.5 133,-162.5 C133,-162.5 114,-153 114,-153 C114,-153 114.17500305175781,-147.32000732421875 114.37799835205078,-140.7100067138672"></path></g></g><g transform="matrix(1,0,0,1,250,250)" opacity="1" style="display: block;"><g opacity="1" transform="matrix(1,0,0,1,0,0)"><path fill="rgb(255,0,0)" fill-opacity="0" d="M0 0"></path><path stroke-linecap="butt" stroke-linejoin="miter" fill-opacity="0" stroke-miterlimit="4" stroke="rgb(185,75,62)" stroke-opacity="1" stroke-width="2" d=" M169.5,-163 C163.33299255371094,-159.83299255371094 151,-153.5 151,-153.5 C151,-153.5 149.4320068359375,-154.37100219726562 147.14599609375,-155.64100646972656"></path></g></g><g transform="matrix(1,0,0,1,250,250)" opacity="1" style="display: block;"><g opacity="1" transform="matrix(1,0,0,1,0,0)"><path fill="rgb(255,0,0)" fill-opacity="0" d="M0 0"></path><path stroke-linecap="butt" stroke-linejoin="miter" fill-opacity="0" stroke-miterlimit="4" stroke="rgb(185,75,62)" stroke-opacity="1" stroke-width="2" d=" M168.5,1 C162.83299255371094,4 151.5,10 151.5,10 C151.5,10 151.5,14.880000114440918 151.5,21.05299949645996"></path></g></g><g transform="matrix(1,0,0,1,250,250)" opacity="1" style="display: block;"><g opacity="1" transform="matrix(1,0,0,1,0,0)"><path fill="rgb(255,0,0)" fill-opacity="0" d="M0 0"></path><path stroke-linecap="butt" stroke-linejoin="miter" fill-opacity="0" stroke-miterlimit="4" stroke="rgb(185,75,62)" stroke-opacity="1" stroke-width="2" d=" M149.5,-41.5 C144.33299255371094,-38 134,-31 134,-31 C134,-31 115,-40.5 115,-40.5 C115,-40.5 115,-41.612998962402344 115,-43.448001861572266"></path></g></g><g transform="matrix(1,0,0,1,250,250)" opacity="1" style="display: block;"><g opacity="1" transform="matrix(1,0,0,1,0,0)"><path fill="rgb(255,0,0)" fill-opacity="0" d="M0 0"></path><path stroke-linecap="butt" stroke-linejoin="miter" fill-opacity="0" stroke-miterlimit="4" stroke="rgb(185,75,62)" stroke-opacity="1" stroke-width="2" d=" M78.5,-233.5 C78.33300018310547,-223.5 78,-203.5 78,-203.5 C78,-203.5 60.5,-195.5 60.5,-195.5 C60.5,-195.5 60.5,-195.4199981689453 60.5,-195.26699829101562"></path></g></g><g transform="matrix(1,0,0,1,250,250)" opacity="1" style="display: block;"><g opacity="1" transform="matrix(1,0,0,1,0,0)"><path fill="rgb(255,0,0)" fill-opacity="0" d="M0 0"></path><path stroke-linecap="butt" stroke-linejoin="miter" fill-opacity="0" stroke-miterlimit="4" stroke="rgb(185,75,62)" stroke-opacity="1" stroke-width="2" d=" M187.5,-72.5 C181.16700744628906,-75.16699981689453 168.5,-80.5 168.5,-80.5 C168.5,-80.5 151,-72 151,-72 C151,-72 137.26499938964844,-79.0530014038086 133.46400451660156,-81.00499725341797"></path></g></g><g transform="matrix(1,0,0,1,250,250)" opacity="1" style="display: block;"><g opacity="1" transform="matrix(1,0,0,1,0,0)"><path fill="rgb(255,0,0)" fill-opacity="0" d="M0 0"></path><path stroke-linecap="butt" stroke-linejoin="miter" fill-opacity="0" stroke-miterlimit="4" stroke="rgb(185,75,62)" stroke-opacity="1" stroke-width="2" d=" M150.5,9.5 C144.83299255371094,6.333000183105469 133.5,0 133.5,0 C133.5,0 133.4199981689453,-4.97599983215332 133.3179931640625,-11.265000343322754"></path></g></g><g transform="matrix(1,0,0,1,250,250)" opacity="1" style="display: block;"><g opacity="1" transform="matrix(1,0,0,1,0,0)"><path fill="rgb(255,0,0)" fill-opacity="0" d="M0 0"></path><path stroke-linecap="butt" stroke-linejoin="miter" fill-opacity="0" stroke-miterlimit="4" stroke="rgb(185,75,62)" stroke-opacity="1" stroke-width="2" d=" M41.5,124 C41.33300018310547,113.33300018310547 41,92 41,92 C41,92 40.90999984741211,91.95099639892578 40.742000579833984,91.86100006103516"></path></g></g><g transform="matrix(1,0,0,1,250,250)" opacity="1" style="display: block;"><g opacity="1" transform="matrix(1,0,0,1,0,0)"><path fill="rgb(255,0,0)" fill-opacity="0" d="M0 0"></path><path stroke-linecap="butt" stroke-linejoin="miter" fill-opacity="0" stroke-miterlimit="4" stroke="rgb(185,75,62)" stroke-opacity="1" stroke-width="2" d=" M22,50 C24.923999786376953,48.53799819946289 29.41900062561035,46.290000915527344 33.57099914550781,44.21500015258789"></path></g></g><g transform="matrix(1,0,0,1,250,250)" opacity="1" style="display: block;"><g opacity="1" transform="matrix(1,0,0,1,0,0)"><path fill="rgb(255,0,0)" fill-opacity="0" d="M0 0"></path><path stroke-linecap="butt" stroke-linejoin="miter" fill-opacity="0" stroke-miterlimit="4" stroke="rgb(185,75,62)" stroke-opacity="1" stroke-width="2" d=" M204.36700439453125,-32.56700134277344 C198.65699768066406,-35.42100143432617 187.5,-41 187.5,-41 C187.5,-41 168.5,-31.5 168.5,-31.5 C168.5,-31.5 158.74200439453125,-36.108001708984375 153.5959930419922,-38.53799819946289"></path></g></g><g transform="matrix(1,0,0,1,250,250)" opacity="1" style="display: block;"><g opacity="1" transform="matrix(1,0,0,1,0,0)"><path fill="rgb(255,0,0)" fill-opacity="0" d="M0 0"></path><path stroke-linecap="butt" stroke-linejoin="miter" fill-opacity="0" stroke-miterlimit="4" stroke="rgb(185,75,62)" stroke-opacity="1" stroke-width="2" d=" M96,-194 C96,-183.33299255371094 96,-162 96,-162 C96,-162 83.51899719238281,-155.75999450683594 79.34300231933594,-153.6719970703125"></path></g></g><g transform="matrix(1,0,0,1,250,250)" opacity="1" style="display: block;"><g opacity="1" transform="matrix(1,0,0,1,0,0)"><path fill="rgb(255,0,0)" fill-opacity="0" d="M0 0"></path><path stroke-linecap="butt" stroke-linejoin="miter" fill-opacity="0" stroke-miterlimit="4" stroke="rgb(185,75,62)" stroke-opacity="1" stroke-width="2" d=" M187,-122 C180.33299255371094,-119.33300018310547 167,-114 167,-114 C167,-114 159.65499877929688,-118.59100341796875 154.91799926757812,-121.5510025024414"></path></g></g><g transform="matrix(1,0,0,1,250,250)" opacity="1" style="display: block;"><g opacity="1" transform="matrix(1,0,0,1,0,0)"><path fill="rgb(255,0,0)" fill-opacity="0" d="M0 0"></path><path stroke-linecap="butt" stroke-linejoin="miter" fill-opacity="0" stroke-miterlimit="4" stroke="rgb(185,75,62)" stroke-opacity="1" stroke-width="2" d=" M77,122 C77,111.83300018310547 77,91.5 77,91.5 C77,91.5 94.21399688720703,83.55500030517578 96.29499816894531,82.59500122070312"></path></g></g><g transform="matrix(1,0,0,1,250,250)" opacity="1" style="display: block;"><g opacity="1" transform="matrix(1,0,0,1,0,0)"><path fill="rgb(255,0,0)" fill-opacity="0" d="M0 0"></path><path stroke-linecap="butt" stroke-linejoin="miter" fill-opacity="0" stroke-miterlimit="4" stroke="rgb(185,75,62)" stroke-opacity="1" stroke-width="2" d=" M48,87.5 C52.16699981689453,85.83300018310547 60.5,82.5 60.5,82.5 C60.5,82.5 60.305999755859375,76.98100280761719 60.07500076293945,70.40399932861328"></path></g></g><g transform="matrix(1,0,0,1,250,250)" opacity="1" style="display: block;"><g opacity="1" transform="matrix(1,0,0,1,0,0)"><path fill="rgb(255,0,0)" fill-opacity="0" d="M0 0"></path><path stroke-linecap="butt" stroke-linejoin="miter" fill-opacity="0" stroke-miterlimit="4" stroke="rgb(185,75,62)" stroke-opacity="1" stroke-width="2" d=" M150.5,122.5 C150.5,112 150.5,91 150.5,91 C150.5,91 132.5,83 132.5,83 C132.5,83 131.23500061035156,83.56199645996094 129.375,84.38899993896484"></path></g></g><g transform="matrix(1,0,0,1,250,250)" opacity="1" style="display: block;"><g opacity="1" transform="matrix(1,0,0,1,0,0)"><path stroke-linecap="butt" stroke-linejoin="miter" fill-opacity="0" stroke-miterlimit="4" stroke="rgb(185,75,62)" stroke-opacity="1" stroke-width="2" d="M0 0"></path></g><g opacity="1" transform="matrix(1,0,0,1,0,0)"><path fill="rgb(255,0,0)" fill-opacity="0" d="M0 0"></path><path stroke-linecap="butt" stroke-linejoin="miter" fill-opacity="0" stroke-miterlimit="4" stroke="rgb(185,75,62)" stroke-opacity="1" stroke-width="2" d=" M-123.0999984741211,-3.0409998893737793 C-123.31400299072266,-9.567000389099121 -123.61399841308594,-18.729000091552734 -123.83799743652344,-25.573999404907227"></path></g><g opacity="1" transform="matrix(1,0,0,1,0,0)"><path fill="rgb(255,0,0)" fill-opacity="0" d="M0 0"></path><path stroke-linecap="butt" stroke-linejoin="miter" fill-opacity="0" stroke-miterlimit="4" stroke="rgb(185,75,62)" stroke-opacity="1" stroke-width="2" d="M0 0"></path></g></g><g transform="matrix(1,0,0,1,250,250)" opacity="1" style="display: block;"><g opacity="1" transform="matrix(1,0,0,1,0,0)"><path stroke-linecap="butt" stroke-linejoin="miter" fill-opacity="0" stroke-miterlimit="4" stroke="rgb(185,75,62)" stroke-opacity="1" stroke-width="2" d="M0 0"></path></g><g opacity="1" transform="matrix(1,0,0,1,0,0)"><path fill="rgb(255,0,0)" fill-opacity="0" d="M0 0"></path><path stroke-linecap="butt" stroke-linejoin="miter" fill-opacity="0" stroke-miterlimit="4" stroke="rgb(185,75,62)" stroke-opacity="1" stroke-width="2" d=" M-207.20899963378906,42.66999816894531 C-201.552001953125,45.970001220703125 -195.5,49.5 -195.5,49.5 C-195.5,49.5 -177.5,41.5 -177.5,41.5 C-177.5,41.5 -177.17300415039062,30.8799991607666 -176.86300659179688,20.79199981689453"></path></g></g><g transform="matrix(1,0,0,1,250,250)" opacity="1" style="display: block;"><g opacity="1" transform="matrix(1,0,0,1,0,0)"><path stroke-linecap="butt" stroke-linejoin="miter" fill-opacity="0" stroke-miterlimit="4" stroke="rgb(185,75,62)" stroke-opacity="1" stroke-width="2" d="M0 0"></path></g><g opacity="1" transform="matrix(1,0,0,1,0,0)"><path fill="rgb(255,0,0)" fill-opacity="0" d="M0 0"></path><path stroke-linecap="butt" stroke-linejoin="miter" fill-opacity="0" stroke-miterlimit="4" stroke="rgb(185,75,62)" stroke-opacity="1" stroke-width="2" d=" M-196.0070037841797,-29.898000717163086 C-191.79800415039062,-31.79400062561035 -185.75399780273438,-34.51300048828125 -181.22999572753906,-36.547000885009766"></path></g></g><g transform="matrix(1,0,0,1,250,250)" opacity="1" style="display: block;"><g opacity="1" transform="matrix(1,0,0,1,0,0)"><path stroke-linecap="butt" stroke-linejoin="miter" fill-opacity="0" stroke-miterlimit="4" stroke="rgb(185,75,62)" stroke-opacity="1" stroke-width="2" d="M0 0"></path></g><g opacity="1" transform="matrix(1,0,0,1,0,0)"><path fill="rgb(255,0,0)" fill-opacity="0" d="M0 0"></path><path stroke-linecap="butt" stroke-linejoin="miter" fill-opacity="0" stroke-miterlimit="4" stroke="rgb(185,75,62)" stroke-opacity="1" stroke-width="2" d=" M-142.3939971923828,-72.39700317382812 C-146.4600067138672,-74.322998046875 -152.16700744628906,-77.0270004272461 -156.4320068359375,-79.0469970703125"></path></g></g><g transform="matrix(1,0,0,1,250,250)" opacity="1" style="display: block;"><g opacity="1" transform="matrix(1,0,0,1,0,0)"><path stroke-linecap="butt" stroke-linejoin="miter" fill-opacity="0" stroke-miterlimit="4" stroke="rgb(185,75,62)" stroke-opacity="1" stroke-width="2" d="M0 0"></path></g><g opacity="1" transform="matrix(1,0,0,1,0,0)"><path fill="rgb(255,0,0)" fill-opacity="0" d="M0 0"></path><path stroke-linecap="butt" stroke-linejoin="miter" fill-opacity="0" stroke-miterlimit="4" stroke="rgb(185,75,62)" stroke-opacity="1" stroke-width="2" d=" M-30.048999786376953,202.80999755859375 C-30.152000427246094,196.07699584960938 -30.304000854492188,186.406005859375 -30.41900062561035,179.16799926757812"></path></g></g><g transform="matrix(1,0,0,1,250,250)" opacity="1" style="display: block;"><g opacity="1" transform="matrix(1,0,0,1,0,0)"><path stroke-linecap="butt" stroke-linejoin="miter" fill-opacity="0" stroke-miterlimit="4" stroke="rgb(185,75,62)" stroke-opacity="1" stroke-width="2" d="M0 0"></path></g><g opacity="1" transform="matrix(1,0,0,1,0,0)"><path fill="rgb(255,0,0)" fill-opacity="0" d="M0 0"></path><path stroke-linecap="butt" stroke-linejoin="miter" fill-opacity="0" stroke-miterlimit="4" stroke="rgb(185,75,62)" stroke-opacity="1" stroke-width="2" d=" M77,197.02499389648438 C77,186.10299682617188 77,173 77,173 C77,173 60,164.5 60,164.5 C60,164.5 60,154.6280059814453 60,144.72900390625"></path></g></g><g transform="matrix(1,0,0,1,250,250)" opacity="1" style="display: block;"><g opacity="1" transform="matrix(1,0,0,1,0,0)"><path stroke-linecap="butt" stroke-linejoin="miter" fill-opacity="0" stroke-miterlimit="4" stroke="rgb(185,75,62)" stroke-opacity="1" stroke-width="2" d="M0 0"></path></g><g opacity="1" transform="matrix(1,0,0,1,0,0)"><path fill="rgb(255,0,0)" fill-opacity="0" d="M0 0"></path><path stroke-linecap="butt" stroke-linejoin="miter" fill-opacity="0" stroke-miterlimit="4" stroke="rgb(185,75,62)" stroke-opacity="1" stroke-width="2" d=" M-105,197.38999938964844 C-105,186.49600219726562 -105,173.5 -105,173.5 C-105,173.5 -86.5,165 -86.5,165 C-86.5,165 -86.5,155.27200317382812 -86.5,145.44700622558594"></path></g></g><g transform="matrix(1,0,0,1,250,250)" opacity="1" style="display: block;"><g opacity="1" transform="matrix(1,0,0,1,0,0)"><path stroke-linecap="butt" stroke-linejoin="miter" fill-opacity="0" stroke-miterlimit="4" stroke="rgb(185,75,62)" stroke-opacity="1" stroke-width="2" d="M0 0"></path></g><g opacity="1" transform="matrix(1,0,0,1,0,0)"><path fill="rgb(255,0,0)" fill-opacity="0" d="M0 0"></path><path stroke-linecap="butt" stroke-linejoin="miter" fill-opacity="0" stroke-miterlimit="4" stroke="rgb(185,75,62)" stroke-opacity="1" stroke-width="2" d=" M-187.86700439453125,129.11199951171875 C-182.71200561523438,126.21299743652344 -177,123 -177,123 C-177,123 -157,133 -157,133 C-157,133 -153.38699340820312,130.96800231933594 -149.31500244140625,128.67799377441406"></path></g></g><g transform="matrix(1,0,0,1,250,250)" opacity="1" style="display: block;"><g opacity="1" transform="matrix(1,0,0,1,0,0)"><path stroke-linecap="butt" stroke-linejoin="miter" fill-opacity="0" stroke-miterlimit="4" stroke="rgb(185,75,62)" stroke-opacity="1" stroke-width="2" d="M0 0"></path></g><g opacity="1" transform="matrix(1,0,0,1,0,0)"><path fill="rgb(255,0,0)" fill-opacity="0" d="M0 0"></path><path stroke-linecap="butt" stroke-linejoin="miter" fill-opacity="0" stroke-miterlimit="4" stroke="rgb(185,75,62)" stroke-opacity="1" stroke-width="2" d=" M200.66600036621094,47.77899932861328 C194.4510040283203,44.92399978637695 187,41.5 187,41.5 C187,41.5 187,28.204999923706055 187,17.117000579833984"></path></g></g><g transform="matrix(1,0,0,1,250,250)" opacity="1" style="display: block;"><g opacity="1" transform="matrix(1,0,0,1,0,0)"><path stroke-linecap="butt" stroke-linejoin="miter" fill-opacity="0" stroke-miterlimit="4" stroke="rgb(185,75,62)" stroke-opacity="1" stroke-width="2" d="M0 0"></path></g><g opacity="1" transform="matrix(1,0,0,1,0,0)"><path fill="rgb(255,0,0)" fill-opacity="0" d="M0 0"></path><path stroke-linecap="butt" stroke-linejoin="miter" fill-opacity="0" stroke-miterlimit="4" stroke="rgb(185,75,62)" stroke-opacity="1" stroke-width="2" d=" M217.68899536132812,-156.44900512695312 C212.16700744628906,-158.86399841308594 205,-162 205,-162 C205,-162 198.81399536132812,-159.08900451660156 193.2969970703125,-156.4929962158203"></path></g></g><g transform="matrix(1,0,0,1,250,250)" opacity="1" style="display: block;"><g opacity="1" transform="matrix(1,0,0,1,0,0)"><path stroke-linecap="butt" stroke-linejoin="miter" fill-opacity="0" stroke-miterlimit="4" stroke="rgb(185,75,62)" stroke-opacity="1" stroke-width="2" d="M0 0"></path></g><g opacity="1" transform="matrix(1,0,0,1,0,0)"><path fill="rgb(255,0,0)" fill-opacity="0" d="M0 0"></path><path stroke-linecap="butt" stroke-linejoin="miter" fill-opacity="0" stroke-miterlimit="4" stroke="rgb(185,75,62)" stroke-opacity="1" stroke-width="2" d=" M-213.0050048828125,-206.7050018310547 C-208.7969970703125,-203.97300720214844 -202.7530059814453,-200.04299926757812 -198.22900390625,-197.10000610351562"></path></g></g><g transform="matrix(1,0,0,1,250,250)" opacity="1" style="display: block;"><g opacity="1" transform="matrix(1,0,0,1,0,0)"><path stroke-linecap="butt" stroke-linejoin="miter" fill-opacity="0" stroke-miterlimit="4" stroke="rgb(185,75,62)" stroke-opacity="1" stroke-width="2" d="M0 0"></path></g><g opacity="1" transform="matrix(1,0,0,1,0,0)"><path fill="rgb(185,75,62)" fill-opacity="0" d="M0 0"></path><path stroke-linecap="butt" stroke-linejoin="miter" fill-opacity="0" stroke-miterlimit="4" stroke="rgb(185,75,62)" stroke-opacity="1" stroke-width="2" d=" M41.04800033569336,-231.80999755859375 C41.1510009765625,-225.07699584960938 41.30400085449219,-215.406005859375 41.417999267578125,-208.16799926757812"></path></g></g><g transform="matrix(1,0,0,1,250,250)" opacity="1" style="display: block;"><g opacity="1" transform="matrix(1,0,0,1,0,0)"><path stroke-linecap="butt" stroke-linejoin="miter" fill-opacity="0" stroke-miterlimit="4" stroke="rgb(185,75,62)" stroke-opacity="1" stroke-width="2" d="M0 0"></path></g><g opacity="1" transform="matrix(1,0,0,1,0,0)"><path fill="rgb(185,75,62)" fill-opacity="0" d="M0 0"></path><path stroke-linecap="butt" stroke-linejoin="miter" fill-opacity="0" stroke-miterlimit="4" stroke="rgb(185,75,62)" stroke-opacity="1" stroke-width="2" d=" M151.3769989013672,-230.45799255371094 C151.63900756835938,-219.02099609375 152,-203.25 152,-203.25 C152,-203.25 145.13400268554688,-200.30799865722656 139.25399780273438,-197.78799438476562"></path></g></g><g transform="matrix(1,0,0,1,250,250)" opacity="1" style="display: block;"><g opacity="1" transform="matrix(1,0,0,1,0,0)"><path stroke-linecap="butt" stroke-linejoin="miter" fill-opacity="0" stroke-miterlimit="4" stroke="rgb(185,75,62)" stroke-opacity="1" stroke-width="2" d="M0 0"></path></g><g opacity="1" transform="matrix(1,0,0,1,0,0)"><path fill="rgb(185,75,62)" fill-opacity="0" d="M0 0"></path><path stroke-linecap="butt" stroke-linejoin="miter" fill-opacity="0" stroke-miterlimit="4" stroke="rgb(185,75,62)" stroke-opacity="1" stroke-width="2" d=" M185.2050018310547,-203.10499572753906 C181.41700744628906,-201.21400451660156 175.9770050048828,-198.49200439453125 171.906005859375,-196.4550018310547"></path></g></g><g transform="matrix(1,0,0,1,250,250)" opacity="1" style="display: block;"><g opacity="1" transform="matrix(1,0,0,1,0,0)"><path stroke-linecap="butt" stroke-linejoin="miter" fill-opacity="0" stroke-miterlimit="4" stroke="rgb(185,75,62)" stroke-opacity="1" stroke-width="2" d="M0 0"></path></g><g opacity="1" transform="matrix(1,0,0,1,0,0)"><path fill="rgb(185,75,62)" fill-opacity="0" d="M0 0"></path><path stroke-linecap="butt" stroke-linejoin="miter" fill-opacity="0" stroke-miterlimit="4" stroke="rgb(185,75,62)" stroke-opacity="1" stroke-width="2" d=" M143.32000732421875,169.2169952392578 C138.468994140625,166.63999938964844 133.5,164 133.5,164 C133.5,164 133,132.5 133,132.5 C133,132.5 129.16000366210938,130.6320037841797 124.69400024414062,128.45899963378906"></path></g></g><g transform="matrix(1,0,0,1,250,250)" opacity="1" style="display: block;"><g opacity="1" transform="matrix(1,0,0,1,0,0)"><path stroke-linecap="butt" stroke-linejoin="miter" fill-opacity="0" stroke-miterlimit="4" stroke="rgb(185,75,62)" stroke-opacity="1" stroke-width="2" d="M0 0"></path></g><g opacity="1" transform="matrix(1,0,0,1,0,0)"><path fill="rgb(185,75,62)" fill-opacity="0" d="M0 0"></path><path stroke-linecap="butt" stroke-linejoin="miter" fill-opacity="0" stroke-miterlimit="4" stroke="rgb(185,75,62)" stroke-opacity="1" stroke-width="2" d=" M185.17999267578125,172.15499877929688 C181.33900451660156,170.3699951171875 175.82400512695312,167.7989959716797 171.69700622558594,165.87399291992188"></path></g></g><g transform="matrix(1,0,0,1,250,250)" opacity="1" style="display: block;"><g opacity="1" transform="matrix(1,0,0,1,0,0)"><path stroke-linecap="butt" stroke-linejoin="miter" fill-opacity="0" stroke-miterlimit="4" stroke="rgb(185,75,62)" stroke-opacity="1" stroke-width="2" d="M0 0"></path></g><g opacity="1" transform="matrix(1,0,0,1,0,0)"><path fill="rgb(185,75,62)" fill-opacity="0" d="M0 0"></path><path stroke-linecap="butt" stroke-linejoin="miter" fill-opacity="0" stroke-miterlimit="4" stroke="rgb(185,75,62)" stroke-opacity="1" stroke-width="2" d=" M202.51400756835938,83.84400177001953 C196.0240020751953,86.61299896240234 187.5,90.25 187.5,90.25 C187.5,90.25 180.92799377441406,87.2300033569336 174.97900390625,84.49700164794922"></path></g><g opacity="1" transform="matrix(1,0,0,1,0,0)"><path fill="rgb(185,75,62)" fill-opacity="0" d="M0 0"></path><path stroke-linecap="butt" stroke-linejoin="miter" fill-opacity="0" stroke-miterlimit="4" stroke="rgb(185,75,62)" stroke-opacity="1" stroke-width="2" d="M0 0"></path></g></g><g transform="matrix(1,0,0,1,250,250)" opacity="1" style="display: block;"><g opacity="1" transform="matrix(1,0,0,1,0,0)"><path stroke-linecap="butt" stroke-linejoin="miter" fill-opacity="0" stroke-miterlimit="4" stroke="rgb(185,75,62)" stroke-opacity="1" stroke-width="2" d="M0 0"></path></g><g opacity="1" transform="matrix(1,0,0,1,0,0)"><path fill="rgb(185,75,62)" fill-opacity="0" d="M0 0"></path><path stroke-linecap="butt" stroke-linejoin="miter" fill-opacity="0" stroke-miterlimit="4" stroke="rgb(185,75,62)" stroke-opacity="1" stroke-width="2" d=" M96.9010009765625,162.11000061035156 C96.69300079345703,154.95700073242188 96.38899993896484,144.6820068359375 96.16200256347656,136.99099731445312"></path></g></g></g></g></g></svg>